<?xml version="1.0" encoding="utf-8"?>
<!-- Generator: Adobe Illustrator 16.0.0, SVG Export Plug-In . SVG Version: 6.00 Build 0)  -->
<!DOCTYPE svg PUBLIC "-//W3C//DTD SVG 1.1//EN" "http://www.w3.org/Graphics/SVG/1.1/DTD/svg11.dtd">
<svg version="1.1" id="图层_1" xmlns="http://www.w3.org/2000/svg" xmlns:xlink="http://www.w3.org/1999/xlink" x="0px" y="0px"
	 width="820px" height="354px" viewBox="0 0 820 354" enable-background="new 0 0 820 354" xml:space="preserve">
<path fill="none" stroke="#A8AAAD" stroke-width="3" d="M567.46,40.323c15.811,0,41.24,64.466,57.05,67.733
	c15.813,3.266,46.811-13.174,56.19-16.721c10.406-3.937,56.242-5.155,72.686-5.232c19.769-0.096,35.582,5.775,52.052,9.042"/>
<circle fill="#FFFFFF" stroke="#939598" stroke-width="2" cx="745.632" cy="87.603" r="56.205"/>
<line fill="none" stroke="#D2D3D4" stroke-width="4" x1="805.315" y1="87.604" x2="749.11" y2="143.809"/>
<line fill="none" stroke="#D2D3D4" stroke-width="4" x1="692.732" y1="90.956" x2="748.938" y2="147.16"/>
<polyline fill="none" stroke="#CECCCC" stroke-width="2.4" points="714.791,100.471 714.793,112.198 708.927,106.333 "/>
<polyline fill="none" stroke="#CECCCC" stroke-width="2.4" points="721.884,133.214 721.881,121.487 727.747,127.352 "/>
<line fill="none" stroke="#DBDAD9" stroke-width="1.6" stroke-dasharray="4,4" x1="381.072" y1="91.766" x2="381.072" y2="214.141"/>
<line fill="none" stroke="#DBDAD9" stroke-width="1.6" stroke-dasharray="4,4" x1="115.208" y1="80.32" x2="115.208" y2="202.692"/>
<line fill="none" stroke="#DBDAD9" stroke-width="1.6" stroke-dasharray="4,4" x1="30.74" y1="105.509" x2="30.74" y2="202.692"/>
<line fill="none" stroke="#DBDAD9" stroke-width="1.6" stroke-dasharray="4,4" x1="205.247" y1="101.329" x2="205.247" y2="202.692"/>
<line fill="none" stroke="#DBDAD9" stroke-width="1.6" stroke-dasharray="4,4" x1="294.998" y1="96.09" x2="294.998" y2="203.159"/>
<line fill="none" stroke="#DBDAD9" stroke-width="1.6" stroke-dasharray="4,4" x1="545.188" y1="75.907" x2="545.188" y2="198.28"/>
<line fill="none" stroke="#DBDAD9" stroke-width="1.6" stroke-dasharray="4,4" x1="461.319" y1="101.329" x2="461.319" y2="195.479"/>
<line fill="none" stroke="#DBDAD9" stroke-width="1.6" stroke-dasharray="4,4" x1="628.303" y1="101.329" x2="628.303" y2="195.479"/>
<line fill="none" stroke="#D2D3D4" stroke-width="4" x1="745.13" y1="34.598" x2="801.335" y2="90.802"/>
<line fill="none" stroke="#D2D3D4" stroke-width="4" x1="745.632" y1="31.399" x2="689.427" y2="87.604"/>
<path fill="none" stroke="#A8AAAD" stroke-width="3" d="M26.2,101.431c4.073-1.087,8.194-2.542,12.354-4.477
	c21.072-9.799,60.602-59.167,81.673-58.078c15.384,0.796,37.116,16.904,48.004,38.128c12.479,24.326,20.775,23.682,25.736,26.034
	c18.376,8.712,26.228-4.994,48.77-6.084c22.542-1.088,61.337,0,86.574,0c25.237,0,60.602-1.088,81.674,0
	c21.071,1.09,43.51,4.355,61.15,0c17.642-4.354,42.732-53.476,60.372-53.476"/>
<circle fill="#FFFFFF" stroke="#F89521" stroke-width="3" cx="545.188" cy="37.503" r="36.138"/>
<line fill="none" stroke="#CECCCC" stroke-width="4" x1="504.365" y1="40.455" x2="576.642" y2="40.455"/>
<circle fill="#FFFFFF" cx="294.998" cy="95.001" r="41.559"/>
<line fill="none" stroke="#D2D3D4" stroke-width="4" x1="271.112" y1="55.88" x2="271.112" y2="131.543"/>
<circle fill="#FFFFFF" stroke="#F89521" stroke-width="3" cx="116.954" cy="38.305" r="36.137"/>
<line fill="none" stroke="#CECCCC" stroke-width="4" x1="75.706" y1="40.624" x2="158.203" y2="40.624"/>
<line fill="none" stroke="#DBDAD9" stroke-width="1.6" stroke-dasharray="4,4" x1="747.496" y1="126.906" x2="747.496" y2="190.954"/>
<rect x="16.854" y="182.591" fill="#F2F2F2" width="798.175" height="31.888"/>
<g>
	<line fill="none" stroke="#010101" stroke-miterlimit="10" x1="99.19" y1="195.479" x2="131.224" y2="195.479"/>
	<line fill="none" stroke="#010101" stroke-miterlimit="10" x1="99.19" y1="204.727" x2="131.224" y2="204.727"/>
</g>
<g>
	<path fill="none" stroke="#010101" stroke-miterlimit="10" d="M312.294,198.808c0-6.21-5.034-11.238-11.243-11.238
		c-6.204,0-11.24,5.029-11.24,11.238"/>
	<path fill="none" stroke="#010101" stroke-miterlimit="10" d="M299.236,198.808c0,5.901-4.787,10.693-10.691,10.693
		c-5.904,0-10.693-4.792-10.693-10.693"/>
	<g>
		<g>
			<line fill="none" stroke="#010101" stroke-miterlimit="10" x1="277.283" y1="198.808" x2="279.899" y2="198.808"/>
			
				<line fill="none" stroke="#010101" stroke-miterlimit="10" stroke-dasharray="5.3433,3.206" x1="283.254" y1="198.808" x2="308.416" y2="198.808"/>
			<line fill="none" stroke="#010101" stroke-miterlimit="10" x1="310.094" y1="198.808" x2="312.71" y2="198.808"/>
		</g>
	</g>
</g>
<g>
	<line fill="none" stroke="#010101" stroke-miterlimit="10" x1="529.172" y1="193.911" x2="561.206" y2="193.911"/>
	<line fill="none" stroke="#010101" stroke-miterlimit="10" x1="529.172" y1="203.159" x2="561.204" y2="203.159"/>
</g>
<polyline fill="none" stroke="#CECCCC" stroke-width="2.4" points="112.541,34.55 117.873,39.882 112.541,39.882 "/>
<polyline fill="none" stroke="#CECCCC" stroke-width="2.4" points="113.411,46.447 108.079,41.117 113.411,41.117 "/>
<polyline fill="none" stroke="#CECCCC" stroke-width="2.4" points="131.475,46.447 126.144,41.117 131.475,41.117 "/>
<polyline fill="none" stroke="#CECCCC" stroke-width="2.4" points="117.199,34.55 122.531,39.882 117.199,39.882 "/>
<polyline fill="none" stroke="#CECCCC" stroke-width="2.4" points="124.796,35.124 130.127,40.456 124.796,40.456 "/>
<polyline fill="none" stroke="#CECCCC" stroke-width="2.4" points="104.867,34.55 110.198,39.882 104.867,39.882 "/>
<line fill="none" stroke="#CECCCC" stroke-width="2.4" x1="98.941" y1="34.076" x2="104.274" y2="39.409"/>
<line fill="none" stroke="#CECCCC" stroke-width="2.4" x1="128.809" y1="34.55" x2="134.142" y2="39.882"/>
<polyline fill="none" stroke="#CECCCC" stroke-width="2.4" points="136.406,46.447 131.074,41.117 136.406,41.117 "/>
<polyline fill="none" stroke="#CECCCC" stroke-width="2.4" points="102.755,46.144 97.422,40.813 102.755,40.813 "/>
<path fill="#149BD7" d="M168.23,39.449c0,8.233-6.672,14.904-14.904,14.904c-8.236,0-14.908-6.671-14.908-14.904
	c0-8.235,6.671-14.906,14.908-14.906C161.558,24.543,168.23,31.214,168.23,39.449z"/>
<circle fill="none" stroke="#F89521" stroke-width="3" cx="153.324" cy="39.449" r="16.037"/>
<path fill="none" stroke="#FFFFFF" stroke-width="0.75" d="M143.172,46.627c0.042,0.663,0.064,0.999,0.073,0.999
	c0.023,0,0.052-0.549,0.074-0.999c0.022-0.453,0.05-2.154,0.071-2.003c0.023,0.152,0.052,2.702,0.073,3.001
	c0.023,0.296,0.053-0.999,0.073-0.999c0.023,0,0.051,0.85,0.071,0.999c0.021,0.15,0.053,0,0.072,0h0.868
	c0.022,0,0.051,0.296,0.071,0c0.023-0.3,0.053-2,0.073-2c0.022,0,0.05,1.7,0.07,2c0.023,0.296,0.052,0,0.071,0h0.725
	c0.021,0,0.053,0.296,0.072,0c0.023-0.3,0.05-2,0.07-2c0.024,0,0.053,1.7,0.074,2c0.023,0.296,0.051,0,0.07,0h0.145
	c0.023,0,0.052,0.296,0.073,0c0.021-0.3,0.049-2,0.072-2c0.022,0,0.051,1.7,0.071,2c0.023,0.296,0.052,0,0.071,0h0.146
	c0.023,0,0.051,0.15,0.071,0c0.024-0.149,0.053-0.999,0.072-0.999c0.023,0,0.053,0.85,0.074,0.999c0.021,0.149,0.05,0,0.071,0h1.374
	c0.022,0,0.051,0.15,0.071,0c0.023-0.149,0.051-0.999,0.072-0.999c0.024,0,0.052,0.85,0.072,0.999c0.024,0.15,0.051,0,0.072,0h0.649
	c0.024,0,0.052,0.15,0.073,0c0.023-0.149,0.053-0.999,0.074-0.999c0.023,0,0.051,0.999,0.069,0.999c0.027,0,0.054-0.999,0.075-0.999
	c0.023,0,0.05,0.85,0.072,0.999c0.023,0.15,0.052,0,0.071,0h3.831c0.022,0,0.051,0.296,0.072,0c0.021-0.3,0.048-2,0.073-2
	c0.02,0,0.048,1.7,0.072,2c0.02,0.296,0.049,0,0.072,0h0.794c0.02,0,0.049,0.296,0.073,0c0.021-0.3,0.048-1.551,0.073-2
	c0.02-0.449,0.048-1.001,0.07-1.001c0.021,0,0.052,1.6,0.073,1.001c0.02-0.598,0.051-5.15,0.073-5
	c0.02,0.152,0.049,5.699,0.072,6.001c0.022,0.296,0.051-4.153,0.074-4.002c0.019,0.152,0.048,4.25,0.071,5
	c0.021,0.749,0.05,0.749,0.071,0c0.023-0.751,0.051-2.899,0.073-5c0.021-2.097,0.05-9.296,0.073-8.997
	c0.021,0.302,0.048,9.199,0.072,10.996c0.021,1.799,0.048,1.6,0.072,1.001c0.021-0.598,0.049-5.3,0.074-5
	c0.02,0.303,0.048,6.098,0.071,7c0.021,0.9,0.049-0.101,0.071-0.999c0.022-0.902,0.052-5.15,0.073-5.003
	c0.021,0.151,0.05,5.101,0.073,6.002c0.021,0.9,0.049,0,0.072,0c0.02,0,0.049,0.296,0.072,0c0.021-0.3,0.05,0.851,0.071-2
	c0.021-2.849,0.05-16.696,0.073-16.997c0.02-0.296,0.047,12.449,0.071,14.996c0.022,2.551,0.051,1.552,0.073,2.001
	c0.021,0.449,0.047,1.001,0.073,1.001c0.021,0,0.05-1.001,0.072-1.001c0.02,0,0.048,1.298,0.071,1.001
	c0.021-0.302,0.049-3.153,0.071-3.002c0.022,0.153,0.05,3.4,0.072,4.001c0.021,0.599,0.051,0,0.074,0h0.291
	c0.019,0,0.048,0.15,0.068,0c0.022-0.149,0.051-0.999,0.075-0.999c0.02,0,0.048,0.85,0.071,0.999c0.021,0.15,0.049,0.296,0.071,0
	c0.02-0.3,0.049-1.85,0.072-2c0.021-0.149,0.049,0.699,0.072,1.001c0.021,0.296,0.05,0.999,0.073,0.999
	c0.021,0,0.05-0.999,0.071-0.999c0.021,0,0.052,0.85,0.074,0.999c0.02,0.15,0.05,0.296,0.072,0c0.021-0.3,0.05-1.85,0.072-2
	c0.019-0.149,0.048,1.001,0.073,1.001c0.02,0,0.048-1.001,0.071-1.001c0.021,0,0.049,0.85,0.072,1.001
	c0.021,0.146,0.049-0.152,0.071,0c0.022,0.146,0.052,0.85,0.073,0.999c0.02,0.15,0.049,0,0.073,0c0.019,0,0.048,0.749,0.071,0
	c0.021-0.751,0.05-5,0.073-5c0.021,0,0.05,4.25,0.071,5c0.022,0.749,0.05,0,0.072,0h0.145c0.021,0,0.049,0.448,0.073,0
	c0.02-0.45,0.048-2.85,0.07-3.001s0.05,1.55,0.075,2.003c0.02,0.45,0.048,0.999,0.071,0.999c0.021,0,0.049-0.549,0.07-0.999
	c0.02-0.453,0.05-2.154,0.073-2.003c0.02,0.152,0.048,3.001,0.071,3.001c0.021,0,0.049-2.703,0.074-3.001
	c0.019-0.297,0.048,1.152,0.072,1.001c0.021-0.149,0.049-2.299,0.072-2.001c0.021,0.301,0.05,3.4,0.072,4.001
	c0.021,0.599,0.05,0,0.072,0h0.072c0.02,0,0.048,0.296,0.073,0c0.019-0.3,0.047-1.85,0.072-2c0.019-0.149,0.048,0.699,0.071,1.001
	c0.021,0.296,0.049,0.85,0.072,0.999c0.02,0.15,0.05,0,0.071,0h1.299c0.022,0,0.049,0.15,0.073,0
	c0.02-0.149,0.049-0.999,0.073-0.999c0.02,0,0.048,0.85,0.072,0.999c0.021,0.15,0.049,0,0.073,0h0.721"/>
<circle fill="#71CCD8" cx="79.081" cy="40.812" r="15.067"/>
<path fill="none" stroke="#FFFFFF" stroke-width="0.75" d="M62.694,44.981c0.027,2.843,0.04,4.375,0.049,4.607
	c0.015,0.52,0.034-1.154,0.047-1.154c0.015,0,0.034,1.067,0.047,1.154c0.015,0.087,0.033-0.577,0.047-0.577
	c0.016,0,0.034,0.403,0.047,0.577c0.016,0.171,0.035,0.49,0.05,0.577c0.014,0.086,0.032,0,0.047,0h0.525
	c0.013,0,0.034,0.086,0.047,0c0.013-0.086,0.034-0.405,0.047-0.577c0.015-0.173,0.034-0.661,0.047-0.577
	c0.016,0.087,0.034,0.979,0.047,1.153c0.015,0.171,0.034,0,0.047,0c0.015,0,0.034,0.086,0.048,0
	c0.014-0.086,0.032-0.577,0.047-0.577c0.014,0,0.032,0.49,0.048,0.577c0.014,0.086,0.034,0,0.047,0h0.189
	c0.014,0,0.032,0.086,0.048,0c0.013-0.086,0.032-0.577,0.046-0.577s0.032,0.577,0.048,0.577c0.013,0,0.033-0.577,0.048-0.577
	c0.012,0,0.033,0.49,0.046,0.577c0.016,0.086,0.033,0,0.046,0h4.092c0.012,0,0.032,0.086,0.046,0
	c0.014-0.086,0.033-0.577,0.047-0.577c0.015,0,0.033,0.49,0.048,0.577c0.015,0.086,0.034,0,0.047,0h4.662
	c0.016,0,0.034,0.086,0.047,0c0.016-0.086,0.033-0.405,0.047-0.577c0.014-0.173,0.032-0.577,0.048-0.577
	c0.013,0,0.032,0.403,0.047,0.577c0.013,0.171,0.032,0.49,0.047,0.577c0.014,0.086,0.031,0,0.047,0h1.667
	c0.014,0,0.033,0.086,0.046,0c0.015-0.086,0.034-0.577,0.047-0.577c0.014,0,0.035,0.748,0.047,0.577
	c0.015-0.174,0.034-1.729,0.048-1.729c0.014,0,0.034,1.469,0.048,1.729c0.015,0.256,0.033,0,0.047,0h0.665
	c0.015,0,0.034,0.086,0.047,0c0.016-0.086,0.034-0.577,0.049-0.577c0.013,0,0.033,0.49,0.047,0.577c0.014,0.086,0.034,0,0.046,0h1
	c0.013,0,0.032,1.209,0.047,0c0.015-1.209,0.033-7.719,0.047-8.062c0.014-0.348,0.034,4.548,0.048,5.759
	c0.014,1.207,0.033,1.958,0.047,2.303c0.015,0.345,0.035,0,0.047,0h0.382c0.016,0,0.034,0.345,0.047,0
	c0.016-0.345,0.035-1.787,0.047-2.303c0.015-0.52,0.033-1.067,0.049-1.153c0.014-0.088,0.033,0.056,0.047,0.576
	c0.013,0.517,0.032,2.446,0.047,2.88c0.012,0.43,0.031,0,0.046,0h0.143c0.014,0,0.033,0.086,0.047,0
	c0.015-0.086,0.033-0.231,0.047-0.577c0.014-0.345,0.034-1.814,0.047-1.726c0.014,0.084,0.034,2.993,0.047,2.303
	c0.015-0.692,0.034-6.912,0.047-6.912c0.016,0,0.034,6.046,0.046,6.912c0.016,0.862,0.035-1.153,0.049-1.153
	c0.015,0,0.033,1.325,0.047,1.153c0.015-0.174,0.033-1.354,0.048-2.303c0.014-0.951,0.034-3.255,0.047-4.033
	c0.015-0.777,0.034-0.893,0.047-1.152c0.014-0.261,0.033-0.318,0.048-0.575c0.015-0.26,0.032-1.846,0.047-1.153
	c0.014,0.691,0.033,5.241,0.047,5.76c0.014,0.518,0.033-2.304,0.047-2.304c0.017,0,0.037,4.637,0.05,2.304
	c0.015-2.332,0.033-15.694,0.047-17.854c0.015-2.16,0.032,0.861,0.048,3.454c0.013,2.593,0.032,11.319,0.047,13.825
	c0.013,2.502,0.032,3.31,0.047,2.877c0.015-0.432,0.033-4.982,0.047-5.759c0.014-0.778,0.033,0.315,0.048,0.577
	c0.014,0.259,0.034,1.152,0.046,1.152c0.015,0,0.035-1.929,0.047-1.152c0.016,0.777,0.034,5.386,0.048,6.335
	c0.014,0.948,0.032,0,0.048,0c0.014,0,0.031,1.38,0.047,0c0.013-1.382,0.032-8.005,0.046-9.215c0.015-1.211,0.034,0.632,0.048,1.153
	c0.014,0.516,0.033,1.869,0.047,2.302c0.014,0.432,0.033-0.201,0.047,0.576c0.013,0.776,0.033,4.346,0.047,4.607
	c0.015,0.26,0.032-2.62,0.047-2.879c0.015-0.262,0.033,1.844,0.047,1.152c0.014-0.69,0.033-5.156,0.046-5.758
	c0.013-0.605,0.034,1.639,0.048,1.727c0.013,0.086,0.032,0.057,0.047-1.153c0.014-1.208,0.034-7.43,0.047-6.911
	c0.014,0.517,0.033,9.588,0.047,10.368c0.015,0.776,0.034-4.581,0.048-5.185c0.015-0.604,0.032,0.461,0.047,1.153
	c0.015,0.69,0.033,3.024,0.047,3.454c0.014,0.433,0.036-1.009,0.049-0.575c0.015,0.433,0.033,2.766,0.049,3.454
	c0.014,0.69,0.032,0.893,0.047,1.154c0.014,0.26,0.033,0.833,0.047,0.577c0.013-0.26,0.034-1.873,0.047-2.304
	c0.014-0.431,0.034-0.836,0.047-0.576c0.016,0.258,0.033,1.873,0.047,2.303c0.016,0.431,0.034,0.663,0.048,0.577
	c0.016-0.086,0.034-0.029,0.046-1.153c0.015-1.122,0.034-5.817,0.048-6.335c0.014-0.518,0.034,2.363,0.049,2.879
	c0.013,0.52,0.032,0.145,0.047,0.579c0.012,0.431,0.033,2.82,0.047,2.3c0.013-0.515,0.033-5.845,0.046-5.758
	c0.016,0.087,0.034,5.385,0.047,6.335c0.017,0.95,0.033,0.259,0.047,0c0.016-0.258,0.035-1.468,0.049-1.727
	c0.013-0.26,0.032-0.434,0.047,0c0.014,0.431,0.034,3.136,0.047,2.88c0.014-0.26,0.033-4.088,0.047-4.608
	c0.014-0.516,0.034,1.413,0.046,1.154c0.015-0.262,0.035-3.052,0.047-2.88c0.015,0.172,0.034,4.203,0.048,4.033
	c0.016-0.175,0.034-5.098,0.048-5.184c0.015-0.088,0.033,3.742,0.047,4.607c0.015,0.863,0.033,0.981,0.048,1.151
	c0.013,0.174,0.032-0.259,0.047,0c0.014,0.26,0.033,1.469,0.047,1.729c0.016,0.256,0.034,0,0.049,0h2.044"/>
<circle fill="none" stroke="#F89521" stroke-width="3" cx="79.081" cy="40.262" r="15.923"/>
<polyline fill="none" stroke="#CECCCC" stroke-width="2.4" points="119.493,46.447 114.16,41.117 119.493,41.117 "/>
<circle fill="#FFFFFF" stroke="#939598" stroke-width="3.2" cx="30.74" cy="100.093" r="10.842"/>
<circle fill="#FFFFFF" stroke="#939598" stroke-width="3.2" cx="204.514" cy="105.508" r="10.842"/>
<circle fill="none" stroke="#A8AAAD" stroke-width="2" cx="294.998" cy="95.001" r="41.559"/>
<polyline fill="none" stroke="#D2D3D4" stroke-width="4" points="274.217,59.008 305.386,77.003 336.556,95.001 "/>
<circle fill="#A9DACA" cx="335.335" cy="94.13" r="9.157"/>
<path fill="none" stroke="#FFFFFF" stroke-width="0.5" d="M329.874,89.42c0.056,6.145,0.088,9.56,0.101,10.244
	c0.03,1.534,0.069,0,0.102,0c0.028,0,0.068,1.534,0.097,0c0.031-1.54,0.071-10.244,0.1-10.244c0.031,0,0.071,10.244,0.101,10.244
	s0.069-10.244,0.099-10.244c0.029,0,0.071,8.704,0.099,10.244c0.031,1.534,0.068,0,0.101,0h0.1c0.028,0,0.071,1.534,0.098,0
	c0.03-1.54,0.068-8.709,0.102-10.244c0.027-1.536,0.068,0,0.098,0c0.029,0,0.069-1.536,0.099,0c0.03,1.535,0.069,8.704,0.099,10.244
	c0.03,1.534,0.07,0,0.102,0h4.87c0.031,0,0.068,0.765,0.1,0c0.03-0.769,0.068-5.124,0.1-5.124c0.029,0,0.07,4.355,0.097,5.124
	c0.031,0.765,0.07,0,0.099,0h0.102c0.03,0,0.068,0.765,0.098,0c0.031-0.769,0.07-5.124,0.1-5.124c0.032,0,0.069,4.355,0.1,5.124
	c0.029,0.765,0.069,0,0.098,0h0.399c0.03,0,0.069,1.534,0.098,0c0.028-1.54,0.071-10.244,0.1-10.244s0.072,8.704,0.101,10.244
	c0.031,1.534,0.069,0,0.101,0h0.594c0.029,0,0.071,0.765,0.101,0c0.028-0.769,0.069-5.124,0.098-5.124
	c0.031,0,0.07,4.355,0.101,5.124c0.028,0.765,0.069,0,0.1,0h0.598c0.029,0,0.069,1.534,0.099,0c0.03-1.54,0.069-10.244,0.1-10.244
	s0.07,8.704,0.101,10.244c0.028,1.534,0.069,0,0.098,0h0.101"/>
<polyline fill="none" stroke="#CECCCC" stroke-width="2.4" points="303.062,64.829 306.701,78.409 298.092,73.439 "/>
<polyline fill="none" stroke="#CECCCC" stroke-width="2.4" points="316.77,93.66 313.966,83.2 320.598,87.028 "/>
<path fill="#149BD7" d="M286.707,54.354c0,8.233-6.672,14.905-14.905,14.905c-8.236,0-14.907-6.671-14.907-14.905
	c0-8.234,6.671-14.905,14.907-14.905C280.035,39.448,286.707,46.12,286.707,54.354z"/>
<circle fill="none" stroke="#F89521" stroke-width="3" cx="271.801" cy="54.354" r="16.037"/>
<path fill="none" stroke="#FFFFFF" stroke-width="0.75" d="M261.649,61.533c0.042,0.663,0.063,0.998,0.073,0.998
	c0.023,0,0.052-0.55,0.073-0.998c0.022-0.453,0.05-2.154,0.071-2.003c0.023,0.152,0.053,2.702,0.073,3.001
	c0.024,0.296,0.053-0.998,0.073-0.998c0.023,0,0.051,0.85,0.071,0.998c0.022,0.149,0.054,0,0.072,0h0.867
	c0.022,0,0.052,0.296,0.071,0c0.023-0.299,0.053-2,0.074-2c0.022,0,0.05,1.701,0.07,2c0.022,0.296,0.052,0,0.071,0h0.724
	c0.022,0,0.053,0.296,0.073,0c0.023-0.299,0.05-2,0.07-2c0.024,0,0.053,1.701,0.074,2c0.023,0.296,0.052,0,0.072,0h0.144
	c0.023,0,0.053,0.296,0.074,0c0.022-0.299,0.049-2,0.072-2c0.022,0,0.051,1.701,0.071,2c0.023,0.296,0.053,0,0.071,0h0.146
	c0.023,0,0.051,0.149,0.07,0c0.024-0.149,0.053-0.998,0.073-0.998c0.023,0,0.052,0.85,0.073,0.998c0.021,0.148,0.05,0,0.071,0h1.374
	c0.022,0,0.052,0.149,0.072,0c0.023-0.149,0.05-0.998,0.071-0.998c0.024,0,0.052,0.85,0.072,0.998c0.024,0.149,0.051,0,0.072,0
	h0.649c0.024,0,0.052,0.149,0.074,0c0.023-0.149,0.052-0.998,0.073-0.998c0.023,0,0.051,0.998,0.069,0.998
	c0.027,0,0.055-0.998,0.076-0.998c0.023,0,0.05,0.85,0.071,0.998c0.022,0.149,0.052,0,0.071,0h3.832c0.022,0,0.051,0.296,0.072,0
	c0.021-0.299,0.048-2,0.073-2c0.02,0,0.048,1.701,0.072,2c0.02,0.296,0.049,0,0.072,0h0.794c0.02,0,0.048,0.296,0.072,0
	c0.021-0.299,0.048-1.551,0.073-2c0.02-0.449,0.048-1.001,0.07-1.001c0.021,0,0.051,1.6,0.072,1.001c0.021-0.599,0.051-5.15,0.073-5
	c0.02,0.153,0.049,5.699,0.072,6.002c0.022,0.296,0.051-4.153,0.074-4.002c0.02,0.152,0.047,4.25,0.07,5
	c0.021,0.749,0.05,0.749,0.071,0c0.023-0.751,0.052-2.9,0.074-5c0.021-2.097,0.049-9.297,0.072-8.997
	c0.022,0.302,0.049,9.198,0.072,10.996c0.021,1.798,0.048,1.6,0.073,1.001c0.021-0.599,0.047-5.299,0.073-5
	c0.02,0.302,0.048,6.099,0.071,7c0.021,0.901,0.049-0.101,0.071-0.998c0.022-0.903,0.051-5.149,0.072-5.004
	c0.021,0.151,0.05,5.101,0.073,6.002c0.021,0.901,0.05,0,0.073,0c0.02,0,0.049,0.296,0.072,0c0.021-0.299,0.05,0.851,0.071-2
	c0.021-2.849,0.05-16.696,0.073-16.997c0.02-0.297,0.047,12.45,0.071,14.996c0.022,2.551,0.05,1.552,0.072,2.001
	c0.021,0.449,0.048,1.002,0.073,1.002c0.021,0,0.051-1.002,0.073-1.002c0.02,0,0.048,1.298,0.071,1.002
	c0.021-0.303,0.049-3.153,0.071-3.003c0.022,0.154,0.05,3.4,0.072,4.001c0.021,0.599,0.051,0,0.074,0h0.291
	c0.019,0,0.048,0.149,0.069,0c0.022-0.149,0.051-0.998,0.075-0.998c0.02,0,0.048,0.85,0.071,0.998c0.021,0.149,0.049,0.296,0.071,0
	c0.02-0.299,0.05-1.85,0.073-2c0.021-0.149,0.049,0.699,0.071,1.002c0.021,0.296,0.05,0.998,0.073,0.998
	c0.021,0,0.051-0.998,0.072-0.998c0.021,0,0.051,0.85,0.073,0.998c0.02,0.149,0.05,0.296,0.071,0c0.021-0.299,0.051-1.85,0.073-2
	c0.019-0.149,0.048,1.002,0.072,1.002c0.02,0,0.048-1.002,0.071-1.002c0.021,0,0.049,0.851,0.072,1.002
	c0.021,0.144,0.049-0.152,0.072,0c0.022,0.144,0.051,0.85,0.072,0.998c0.02,0.149,0.048,0,0.072,0c0.019,0,0.049,0.749,0.072,0
	c0.021-0.751,0.05-5,0.072-5c0.021,0,0.05,4.25,0.071,5c0.022,0.749,0.051,0,0.074,0h0.145c0.021,0,0.048,0.449,0.073,0
	c0.021-0.45,0.048-2.85,0.07-3.001c0.022-0.151,0.05,1.55,0.074,2.003c0.02,0.448,0.048,0.998,0.071,0.998
	c0.021,0,0.05-0.55,0.072-0.998c0.02-0.453,0.049-2.154,0.072-2.003c0.02,0.152,0.048,3.001,0.07,3.001
	c0.021,0,0.049-2.703,0.075-3.001c0.019-0.298,0.047,1.152,0.071,1.001c0.021-0.149,0.049-2.299,0.072-2.001
	c0.021,0.302,0.05,3.4,0.072,4.001c0.021,0.599,0.05,0,0.072,0h0.072c0.02,0,0.047,0.296,0.073,0c0.019-0.299,0.047-1.85,0.072-2
	c0.019-0.149,0.048,0.699,0.071,1.002c0.021,0.296,0.049,0.85,0.072,0.998c0.02,0.149,0.05,0,0.071,0h1.299
	c0.022,0,0.05,0.149,0.074,0c0.02-0.149,0.048-0.998,0.072-0.998c0.02,0,0.049,0.85,0.072,0.998c0.021,0.149,0.05,0,0.074,0h0.721"
	/>
<circle fill="#A9DACA" cx="270.356" cy="130.079" r="11.511"/>
<path fill="none" stroke="#FFFFFF" stroke-width="0.75" d="M260.235,133.264c0.021,2.171,0.031,3.342,0.037,3.52
	c0.011,0.396,0.025-0.881,0.036-0.881c0.011,0,0.026,0.814,0.036,0.881c0.012,0.065,0.026-0.441,0.037-0.441
	c0.012,0,0.025,0.308,0.036,0.441c0.012,0.13,0.026,0.374,0.037,0.44c0.012,0.067,0.024,0,0.037,0h0.4c0.011,0,0.027,0.067,0.037,0
	c0.011-0.066,0.026-0.308,0.037-0.44c0.012-0.133,0.026-0.506,0.037-0.441c0.011,0.065,0.025,0.748,0.036,0.881
	c0.011,0.131,0.025,0,0.036,0c0.011,0,0.025,0.066,0.038,0c0.01-0.066,0.024-0.44,0.035-0.44s0.024,0.374,0.037,0.44
	c0.011,0.066,0.025,0,0.037,0h0.144c0.011,0,0.025,0.066,0.037,0c0.01-0.066,0.024-0.44,0.036-0.44c0.01,0,0.024,0.44,0.036,0.44
	c0.011,0,0.026-0.44,0.037-0.44c0.009,0,0.025,0.374,0.035,0.44c0.013,0.066,0.026,0,0.037,0h3.127c0.009,0,0.023,0.066,0.035,0
	c0.012-0.066,0.025-0.44,0.037-0.44c0.012,0,0.025,0.374,0.037,0.44c0.01,0.066,0.025,0,0.036,0h3.563c0.011,0,0.025,0.066,0.036,0
	s0.025-0.308,0.037-0.44c0.012-0.133,0.025-0.441,0.037-0.441c0.01,0,0.024,0.308,0.035,0.441c0.01,0.13,0.025,0.374,0.037,0.44
	c0.01,0.066,0.024,0,0.036,0h1.273c0.012,0,0.026,0.066,0.037,0c0.01-0.066,0.025-0.44,0.035-0.44c0.011,0,0.027,0.571,0.036,0.44
	c0.012-0.133,0.026-1.321,0.037-1.321c0.01,0,0.025,1.124,0.036,1.321c0.011,0.195,0.026,0,0.037,0h0.507
	c0.012,0,0.025,0.066,0.036,0c0.011-0.066,0.025-0.44,0.038-0.44c0.011,0,0.025,0.374,0.037,0.44c0.011,0.066,0.026,0,0.036,0h0.764
	c0.011,0,0.025,0.923,0.037,0c0.01-0.924,0.025-5.896,0.036-6.159c0.011-0.265,0.025,3.473,0.037,4.4
	c0.01,0.923,0.025,1.495,0.036,1.76c0.01,0.264,0.026,0,0.036,0h0.292c0.012,0,0.025,0.264,0.036,0
	c0.012-0.264,0.027-1.364,0.038-1.76c0.011-0.397,0.024-0.814,0.037-0.881c0.01-0.066,0.024,0.044,0.037,0.44
	c0.01,0.395,0.025,1.868,0.036,2.2c0.011,0.329,0.024,0,0.036,0h0.109c0.011,0,0.026,0.067,0.037,0
	c0.011-0.066,0.026-0.176,0.036-0.44c0.011-0.264,0.025-1.387,0.037-1.32c0.01,0.065,0.026,2.286,0.037,1.76
	c0.011-0.528,0.025-5.281,0.037-5.281c0.011,0,0.025,4.62,0.036,5.281c0.012,0.658,0.026-0.881,0.037-0.881
	c0.01,0,0.025,1.012,0.036,0.881c0.012-0.133,0.025-1.035,0.037-1.76c0.011-0.728,0.025-2.486,0.037-3.081
	c0.011-0.594,0.025-0.684,0.037-0.88c0.011-0.199,0.026-0.242,0.036-0.438c0.011-0.198,0.025-1.412,0.036-0.881
	c0.012,0.527,0.026,4.003,0.037,4.399c0.012,0.396,0.025-1.76,0.037-1.76c0.014,0,0.028,3.541,0.039,1.76
	c0.011-1.781,0.024-11.99,0.036-13.639c0.012-1.651,0.024,0.658,0.037,2.638c0.011,1.981,0.024,8.648,0.037,10.562
	c0.01,1.912,0.024,2.529,0.037,2.199c0.011-0.33,0.024-3.808,0.036-4.4c0.01-0.595,0.024,0.24,0.037,0.44
	c0.01,0.197,0.025,0.88,0.035,0.88c0.011,0,0.026-1.475,0.036-0.88c0.012,0.594,0.025,4.114,0.038,4.84c0.01,0.725,0.024,0,0.037,0
	c0.009,0,0.024,1.055,0.037,0c0.01-1.057,0.024-6.116,0.036-7.041c0.011-0.925,0.026,0.483,0.037,0.882
	c0.01,0.395,0.025,1.428,0.036,1.759c0.011,0.33,0.025-0.153,0.037,0.44c0.011,0.594,0.025,3.32,0.037,3.52
	c0.011,0.197,0.024-2.002,0.036-2.201c0.012-0.199,0.024,1.409,0.037,0.881c0.011-0.527,0.024-3.94,0.036-4.4
	c0.01-0.463,0.025,1.252,0.036,1.319c0.01,0.065,0.024,0.044,0.036-0.88c0.011-0.923,0.025-5.676,0.037-5.279
	c0.01,0.396,0.025,7.325,0.036,7.92c0.012,0.593,0.025-3.499,0.038-3.961c0.011-0.461,0.024,0.353,0.036,0.882
	c0.01,0.527,0.025,2.31,0.036,2.638c0.011,0.332,0.027-0.769,0.038-0.438c0.011,0.33,0.025,2.112,0.038,2.639
	c0.009,0.527,0.024,0.682,0.036,0.881c0.01,0.197,0.025,0.635,0.036,0.44c0.01-0.198,0.026-1.431,0.036-1.76
	c0.01-0.331,0.026-0.639,0.036-0.441c0.012,0.197,0.026,1.432,0.037,1.761c0.012,0.329,0.026,0.505,0.037,0.44
	c0.012-0.066,0.025-0.023,0.037-0.881c0.012-0.857,0.025-4.443,0.037-4.84c0.011-0.396,0.025,1.805,0.037,2.199
	c0.011,0.397,0.025,0.111,0.037,0.441c0.009,0.33,0.025,2.156,0.035,1.759c0.011-0.394,0.025-4.467,0.036-4.399
	c0.012,0.065,0.026,4.114,0.036,4.84c0.013,0.725,0.026,0.197,0.037,0c0.012-0.197,0.026-1.122,0.037-1.32
	c0.01-0.197,0.024-0.33,0.037,0c0.01,0.33,0.025,2.396,0.036,2.201c0.01-0.198,0.025-3.124,0.037-3.521
	c0.01-0.394,0.026,1.08,0.036,0.881c0.011-0.199,0.026-2.332,0.038-2.2c0.012,0.131,0.025,3.211,0.036,3.081
	c0.011-0.135,0.025-3.896,0.036-3.961c0.011-0.067,0.026,2.859,0.037,3.52c0.012,0.66,0.025,0.749,0.037,0.878
	c0.01,0.133,0.024-0.198,0.037,0c0.01,0.199,0.025,1.124,0.036,1.322c0.012,0.195,0.026,0,0.038,0h1.562"/>
<polyline fill="none" stroke="#CECCCC" stroke-width="2.4" points="262.984,87.335 270.752,79.569 270.752,87.335 "/>
<polyline fill="none" stroke="#CECCCC" stroke-width="2.4" points="279.745,80.616 271.979,88.381 271.979,80.616 "/>
<polyline fill="none" stroke="#CECCCC" stroke-width="2.4" points="263.607,100.839 271.373,93.071 271.373,100.839 "/>
<circle fill="#FFFFFF" stroke="#939598" cx="461.319" cy="94.542" r="36.138"/>
<circle fill="none" stroke="#939598" stroke-width="2" cx="461.319" cy="94.542" r="36.138"/>
<line fill="none" stroke="#CECCCC" stroke-width="4" x1="425.18" y1="94.542" x2="497.457" y2="94.542"/>
<polyline fill="none" stroke="#CECCCC" stroke-width="2.4" points="472.235,86.218 479.598,93.579 472.235,93.579 "/>
<circle fill="#71CCD8" cx="497.457" cy="94.542" r="11.343"/>
<path fill="none" stroke="#FFFFFF" stroke-width="0.75" d="M489.435,101.721c0.033,0.56,0.053,0.844,0.062,0.844
	c0.021,0,0.042-0.465,0.062-0.844c0.02-0.382,0.042-1.819,0.062-1.692s0.045,2.283,0.061,2.536c0.021,0.25,0.045-0.844,0.063-0.844
	s0.043,0.718,0.059,0.844c0.021,0.125,0.046,0,0.062,0h0.734c0.019,0,0.043,0.25,0.059,0c0.021-0.253,0.046-1.69,0.064-1.69
	s0.042,1.437,0.06,1.69c0.02,0.25,0.044,0,0.061,0h0.611c0.019,0,0.045,0.25,0.061,0c0.021-0.253,0.043-1.69,0.062-1.69
	c0.021,0,0.045,1.437,0.063,1.69c0.02,0.25,0.045,0,0.061,0h0.122c0.021,0,0.044,0.25,0.062,0c0.02-0.253,0.043-1.69,0.062-1.69
	c0.021,0,0.043,1.437,0.062,1.69c0.021,0.25,0.045,0,0.062,0h0.122c0.019,0,0.043,0.125,0.06,0c0.022-0.126,0.045-0.844,0.063-0.844
	s0.043,0.718,0.061,0.844c0.02,0.125,0.043,0,0.061,0h1.16c0.019,0,0.043,0.125,0.061,0c0.021-0.126,0.044-0.844,0.063-0.844
	c0.021,0,0.042,0.718,0.062,0.844c0.02,0.125,0.043,0,0.061,0h0.548c0.021,0,0.043,0.125,0.062,0
	c0.021-0.126,0.045-0.844,0.061-0.844c0.021,0,0.046,0.844,0.061,0.844c0.021,0,0.046-0.844,0.065-0.844
	c0.018,0,0.043,0.718,0.059,0.844c0.021,0.125,0.045,0,0.062,0h3.235c0.019,0,0.043,0.25,0.062,0c0.019-0.253,0.041-1.69,0.063-1.69
	c0.016,0,0.041,1.437,0.061,1.69c0.017,0.25,0.041,0,0.062,0h0.671c0.016,0,0.041,0.25,0.062,0c0.018-0.253,0.041-1.31,0.063-1.69
	c0.018-0.377,0.041-0.846,0.06-0.846c0.017,0,0.043,1.353,0.061,0.846c0.02-0.506,0.044-4.348,0.063-4.222
	c0.017,0.125,0.042,4.813,0.062,5.069c0.018,0.249,0.043-3.508,0.063-3.38c0.017,0.128,0.042,3.59,0.06,4.225
	c0.019,0.632,0.043,0.632,0.062,0c0.019-0.634,0.043-2.451,0.063-4.225c0.018-1.769,0.041-7.851,0.06-7.598
	c0.021,0.254,0.043,7.767,0.064,9.286c0.016,1.521,0.04,1.353,0.061,0.846c0.019-0.506,0.041-4.475,0.062-4.222
	c0.016,0.254,0.041,5.151,0.062,5.912c0.016,0.759,0.041-0.086,0.059-0.844c0.021-0.763,0.043-4.349,0.063-4.225
	c0.017,0.127,0.041,4.307,0.063,5.069c0.018,0.759,0.042,0,0.061,0c0.017,0,0.043,0.25,0.062,0c0.016-0.253,0.043,0.718,0.061-1.69
	c0.019-2.406,0.042-14.101,0.062-14.354c0.02-0.251,0.041,10.512,0.062,12.666c0.019,2.154,0.043,1.312,0.061,1.689
	c0.02,0.38,0.041,0.847,0.063,0.847c0.018,0,0.042-0.847,0.062-0.847c0.018,0,0.041,1.096,0.061,0.847
	c0.019-0.255,0.043-2.663,0.062-2.536c0.018,0.129,0.043,2.873,0.062,3.379c0.019,0.505,0.043,0,0.061,0h0.246
	c0.016,0,0.041,0.125,0.059,0c0.021-0.126,0.043-0.844,0.063-0.844c0.02,0,0.041,0.718,0.062,0.844c0.019,0.125,0.041,0.25,0.062,0
	c0.017-0.253,0.04-1.563,0.062-1.69c0.016-0.124,0.04,0.591,0.06,0.847c0.02,0.249,0.043,0.844,0.063,0.844
	c0.019,0,0.041-0.844,0.062-0.844c0.019,0,0.043,0.718,0.061,0.844c0.02,0.125,0.042,0.25,0.062,0
	c0.02-0.253,0.043-1.563,0.063-1.69c0.018-0.124,0.04,0.847,0.063,0.847c0.017,0,0.042-0.847,0.06-0.847
	c0.019,0,0.043,0.719,0.062,0.847c0.018,0.123,0.041-0.128,0.061,0c0.02,0.123,0.043,0.718,0.062,0.844c0.019,0.125,0.043,0,0.064,0
	c0.016,0,0.04,0.632,0.059,0c0.019-0.634,0.042-4.225,0.063-4.225c0.016,0,0.041,3.59,0.06,4.225c0.018,0.632,0.043,0,0.061,0h0.122
	c0.02,0,0.042,0.378,0.064,0c0.017-0.382,0.04-2.41,0.06-2.537c0.018-0.126,0.042,1.31,0.063,1.692
	c0.017,0.377,0.042,0.844,0.062,0.844c0.016,0,0.041-0.466,0.06-0.844c0.018-0.382,0.043-1.819,0.063-1.692
	c0.018,0.127,0.041,2.537,0.06,2.537s0.043-2.283,0.064-2.537c0.016-0.251,0.04,0.973,0.061,0.846
	c0.017-0.124,0.041-1.941,0.062-1.689c0.018,0.255,0.041,2.874,0.062,3.379c0.018,0.505,0.043,0,0.061,0h0.062
	c0.017,0,0.041,0.25,0.062,0c0.017-0.253,0.041-1.563,0.062-1.69c0.019-0.124,0.04,0.591,0.062,0.848
	c0.018,0.249,0.043,0.717,0.061,0.844c0.019,0.125,0.044,0,0.062,0h1.098c0.019,0,0.044,0.125,0.062,0
	c0.018-0.126,0.041-0.844,0.063-0.844c0.016,0,0.041,0.717,0.061,0.844c0.017,0.125,0.041,0,0.062,0h0.609"/>
<circle fill="#D1E8C6" cx="425.164" cy="94.542" r="8.699"/>
<path fill="none" stroke="#FFFFFF" stroke-width="0.75" d="M419.012,97.7c0.017,1.64,0.022,2.525,0.026,2.662
	c0.009,0.297,0.021-0.667,0.029-0.667c0.006,0,0.019,0.615,0.024,0.667c0.011,0.049,0.022-0.333,0.028-0.333
	c0.009,0,0.019,0.233,0.026,0.333c0.011,0.098,0.021,0.282,0.027,0.33c0.01,0.051,0.021,0,0.028,0h0.303
	c0.008,0,0.021,0.051,0.026,0c0.008-0.049,0.021-0.233,0.026-0.33c0.011-0.102,0.021-0.383,0.029-0.333
	c0.006,0.049,0.019,0.564,0.026,0.664c0.006,0.101,0.019,0,0.026,0c0.006,0,0.019,0.051,0.026,0c0.008-0.049,0.021-0.33,0.026-0.33
	c0.009,0,0.021,0.282,0.029,0.33c0.008,0.051,0.019,0,0.026,0h0.108c0.008,0,0.021,0.051,0.028,0c0.008-0.049,0.019-0.33,0.026-0.33
	c0.009,0,0.019,0.33,0.026,0.33c0.009,0,0.021-0.33,0.027-0.33c0.008,0,0.021,0.282,0.026,0.33c0.01,0.051,0.021,0,0.026,0h2.363
	c0.008,0,0.018,0.051,0.026,0c0.011-0.049,0.021-0.33,0.026-0.33c0.008,0,0.021,0.282,0.029,0.33c0.008,0.051,0.018,0,0.025,0h2.691
	c0.01,0,0.02,0.051,0.027,0c0.01-0.049,0.019-0.233,0.027-0.33c0.008-0.102,0.02-0.333,0.026-0.333c0.01,0,0.02,0.233,0.026,0.333
	c0.011,0.098,0.021,0.282,0.028,0.33c0.008,0.051,0.021,0,0.027,0h0.962c0.009,0,0.021,0.051,0.026,0
	c0.008-0.049,0.021-0.33,0.027-0.33c0.008,0,0.02,0.43,0.026,0.33c0.01-0.1,0.02-0.997,0.026-0.997c0.011,0,0.021,0.849,0.028,0.997
	c0.008,0.15,0.019,0,0.027,0h0.384c0.008,0,0.019,0.051,0.026,0c0.008-0.049,0.019-0.33,0.026-0.33c0.011,0,0.021,0.282,0.028,0.33
	c0.006,0.051,0.02,0,0.027,0h0.576c0.009,0,0.019,0.699,0.026,0c0.01-0.697,0.021-4.456,0.027-4.654
	c0.008-0.199,0.02,2.627,0.028,3.326c0.008,0.697,0.018,1.131,0.026,1.329c0.009,0.201,0.021,0,0.026,0h0.221
	c0.008,0,0.021,0.201,0.027,0c0.01-0.197,0.02-1.029,0.027-1.329c0.009-0.3,0.02-0.615,0.027-0.667
	c0.008-0.049,0.019,0.035,0.026,0.333c0.008,0.298,0.021,1.413,0.027,1.662c0.008,0.25,0.02,0,0.025,0h0.084
	c0.009,0,0.019,0.051,0.026,0c0.009-0.049,0.021-0.133,0.027-0.33c0.008-0.201,0.02-1.049,0.028-0.998
	c0.007,0.049,0.019,1.727,0.026,1.329c0.009-0.398,0.019-3.989,0.026-3.989c0.009,0,0.02,3.491,0.027,3.989
	c0.01,0.5,0.02-0.664,0.025-0.664c0.01,0,0.021,0.764,0.027,0.664c0.01-0.1,0.021-0.78,0.028-1.329
	c0.009-0.549,0.021-1.878,0.027-2.329c0.008-0.45,0.02-0.517,0.027-0.667c0.008-0.149,0.02-0.182,0.025-0.331
	c0.008-0.148,0.021-1.065,0.028-0.664c0.009,0.398,0.019,3.026,0.025,3.323c0.01,0.299,0.02-1.329,0.027-1.329
	c0.009,0,0.023,2.677,0.029,1.329c0.008-1.347,0.019-9.058,0.026-10.308c0.011-1.247,0.021,0.499,0.029,1.995
	c0.006,1.496,0.018,6.535,0.026,7.981c0.008,1.445,0.019,1.911,0.026,1.662c0.006-0.25,0.018-2.878,0.027-3.325
	c0.008-0.451,0.018,0.182,0.025,0.332c0.009,0.15,0.021,0.665,0.027,0.665c0.008,0,0.021-1.114,0.028-0.665
	c0.008,0.451,0.018,3.11,0.027,3.656c0.006,0.548,0.018,0,0.025,0s0.019,0.797,0.029,0c0.008-0.797,0.019-4.621,0.024-5.318
	c0.01-0.699,0.021,0.364,0.028,0.664c0.009,0.298,0.019,1.079,0.026,1.329c0.008,0.252,0.021-0.114,0.027,0.333
	c0.008,0.45,0.02,2.509,0.028,2.662c0.008,0.149,0.018-1.513,0.026-1.665c0.009-0.149,0.019,1.066,0.026,0.667
	c0.008-0.398,0.019-2.979,0.027-3.326c0.008-0.349,0.02,0.946,0.026,0.998c0.008,0.049,0.02,0.032,0.028-0.667
	c0.008-0.697,0.019-4.288,0.024-3.99c0.01,0.298,0.023,5.537,0.029,5.987c0.008,0.448,0.02-2.645,0.027-2.992
	c0.009-0.35,0.02,0.266,0.025,0.664c0.01,0.4,0.021,1.746,0.028,1.995c0.006,0.25,0.021-0.582,0.027-0.332
	c0.008,0.25,0.02,1.596,0.027,1.994c0.009,0.398,0.021,0.515,0.027,0.667c0.008,0.149,0.021,0.48,0.026,0.33
	c0.008-0.149,0.021-1.079,0.026-1.329c0.009-0.249,0.021-0.482,0.028-0.333c0.008,0.149,0.021,1.081,0.027,1.331
	c0.008,0.246,0.021,0.381,0.026,0.33c0.008-0.049,0.019-0.017,0.026-0.664c0.011-0.648,0.021-3.358,0.028-3.659
	c0.006-0.298,0.02,1.365,0.027,1.664c0.008,0.299,0.02,0.082,0.026,0.333c0.006,0.248,0.021,1.629,0.026,1.329
	c0.008-0.299,0.021-3.375,0.028-3.326c0.008,0.051,0.02,3.111,0.027,3.659c0.008,0.547,0.018,0.149,0.025,0
	c0.009-0.15,0.02-0.85,0.027-0.998c0.01-0.149,0.021-0.25,0.028,0c0.006,0.25,0.019,1.811,0.027,1.662
	c0.006-0.148,0.018-2.36,0.025-2.659c0.006-0.298,0.021,0.816,0.027,0.665c0.008-0.149,0.019-1.762,0.028-1.662
	c0.008,0.099,0.019,2.426,0.024,2.329c0.009-0.101,0.021-2.944,0.028-2.994c0.008-0.049,0.02,2.163,0.027,2.661
	s0.02,0.566,0.026,0.665c0.009,0.101,0.021-0.149,0.028,0c0.007,0.15,0.019,0.849,0.026,0.997c0.009,0.15,0.021,0,0.029,0h1.179"/>
<polyline fill="none" stroke="#CECCCC" stroke-width="2.4" points="459.479,105.089 448.351,93.964 459.479,93.964 "/>
<polyline fill="none" stroke="#CECCCC" stroke-width="2.4" points="550.515,30.489 560.875,40.849 550.515,40.849 "/>
<line fill="none" stroke="#CECCCC" stroke-width="2.4" x1="529.344" y1="30.048" x2="539.919" y2="40.625"/>
<path fill="#149BD7" d="M596.464,38.647c0,8.234-6.672,14.905-14.905,14.905c-8.234,0-14.905-6.671-14.905-14.905
	c0-8.235,6.671-14.906,14.905-14.906C589.792,23.741,596.464,30.412,596.464,38.647z"/>
<circle fill="none" stroke="#F89521" stroke-width="3" cx="581.557" cy="38.647" r="16.038"/>
<path fill="none" stroke="#FFFFFF" stroke-width="0.75" d="M571.405,45.826c0.041,0.663,0.063,0.998,0.074,0.998
	c0.021,0,0.051-0.549,0.07-0.998c0.022-0.454,0.052-2.155,0.069-2.003c0.025,0.151,0.056,2.702,0.074,3.001
	c0.022,0.297,0.054-0.998,0.073-0.998c0.022,0,0.052,0.849,0.069,0.998c0.023,0.149,0.056,0,0.074,0h0.866
	c0.021,0,0.052,0.297,0.071,0c0.023-0.299,0.054-2,0.072-2c0.022,0,0.051,1.7,0.071,2c0.022,0.297,0.051,0,0.069,0h0.726
	c0.022,0,0.052,0.297,0.071,0c0.023-0.299,0.052-2,0.07-2c0.024,0,0.053,1.7,0.073,2c0.022,0.297,0.051,0,0.071,0h0.146
	c0.021,0,0.051,0.297,0.073,0c0.021-0.299,0.049-2,0.072-2c0.02,0,0.051,1.7,0.071,2c0.02,0.297,0.051,0,0.069,0h0.146
	c0.021,0,0.052,0.149,0.069,0c0.025-0.15,0.054-0.998,0.072-0.998c0.024,0,0.054,0.849,0.073,0.998c0.023,0.149,0.052,0,0.071,0
	h1.374c0.022,0,0.051,0.149,0.072,0c0.021-0.15,0.05-0.998,0.071-0.998c0.023,0,0.051,0.849,0.071,0.998c0.022,0.149,0.051,0,0.07,0
	h0.649c0.023,0,0.055,0.149,0.073,0c0.021-0.15,0.053-0.998,0.073-0.998c0.022,0,0.051,0.998,0.067,0.998
	c0.028,0,0.056-0.998,0.076-0.998c0.021,0,0.051,0.849,0.07,0.998c0.023,0.149,0.054,0,0.07,0h3.833c0.021,0,0.05,0.297,0.071,0
	c0.02-0.299,0.049-2,0.073-2c0.021,0,0.049,1.7,0.072,2c0.018,0.297,0.048,0,0.07,0h0.796c0.018,0,0.049,0.297,0.069,0
	c0.022-0.299,0.051-1.551,0.074-2c0.02-0.449,0.048-1.001,0.068-1.001c0.022,0,0.054,1.6,0.073,1.001
	c0.021-0.599,0.052-5.15,0.072-5c0.021,0.153,0.051,5.7,0.073,6.002c0.021,0.296,0.05-4.153,0.071-4.002
	c0.021,0.152,0.047,4.25,0.072,5c0.021,0.75,0.049,0.75,0.069,0c0.022-0.751,0.051-2.9,0.073-5c0.023-2.097,0.049-9.296,0.072-8.997
	c0.022,0.302,0.051,9.199,0.071,10.996c0.021,1.798,0.049,1.6,0.071,1.001c0.022-0.599,0.049-5.301,0.074-5
	c0.02,0.303,0.049,6.099,0.071,7c0.02,0.899,0.049-0.102,0.07-0.998c0.023-0.903,0.052-5.149,0.072-5.003
	c0.021,0.151,0.052,5.101,0.071,6.001c0.023,0.899,0.054,0,0.073,0s0.05,0.297,0.072,0c0.021-0.299,0.05,0.851,0.071-2
	c0.021-2.849,0.049-16.696,0.071-16.997c0.021-0.298,0.049,12.449,0.072,14.996c0.022,2.55,0.051,1.552,0.071,2.001
	c0.022,0.448,0.049,1.001,0.074,1.001c0.02,0,0.048-1.001,0.071-1.001c0.02,0,0.047,1.298,0.071,1.001
	c0.021-0.302,0.049-3.153,0.072-3.002c0.02,0.152,0.051,3.4,0.068,4c0.022,0.598,0.052,0,0.073,0h0.291c0.019,0,0.049,0.149,0.069,0
	c0.022-0.15,0.051-0.998,0.073-0.998c0.021,0,0.049,0.849,0.072,0.998c0.022,0.149,0.049,0.297,0.071,0
	c0.018-0.299,0.049-1.851,0.071-2c0.021-0.15,0.049,0.699,0.072,1.001c0.02,0.296,0.049,0.998,0.07,0.998
	c0.022,0,0.052-0.998,0.071-0.998c0.021,0,0.054,0.849,0.072,0.998c0.021,0.148,0.052,0.297,0.073,0
	c0.021-0.299,0.052-1.851,0.071-2c0.021-0.15,0.05,1.001,0.074,1.001c0.019,0,0.047-1.001,0.071-1.001
	c0.021,0,0.049,0.849,0.069,1.001c0.023,0.145,0.051-0.153,0.072,0c0.021,0.145,0.051,0.849,0.073,0.998
	c0.019,0.149,0.049,0,0.071,0c0.021,0,0.049,0.75,0.072,0c0.02-0.751,0.049-5,0.071-5s0.051,4.25,0.072,5c0.021,0.75,0.048,0,0.07,0
	h0.146c0.022,0,0.049,0.449,0.073,0c0.021-0.45,0.047-2.851,0.069-3.001c0.023-0.151,0.051,1.549,0.076,2.003
	c0.019,0.449,0.047,0.998,0.071,0.998c0.021,0,0.049-0.549,0.069-0.998c0.021-0.454,0.049-2.155,0.072-2.003
	c0.02,0.151,0.049,3.001,0.071,3.001c0.02,0,0.049-2.703,0.073-3.001c0.021-0.297,0.047,1.151,0.072,1.001
	c0.02-0.15,0.049-2.3,0.071-2.001c0.022,0.302,0.051,3.4,0.07,4c0.023,0.598,0.05,0,0.072,0h0.071c0.021,0,0.05,0.297,0.073,0
	c0.02-0.299,0.048-1.851,0.074-2c0.019-0.15,0.048,0.699,0.069,1.001c0.023,0.296,0.049,0.849,0.072,0.998
	c0.021,0.149,0.05,0,0.071,0h1.3c0.021,0,0.049,0.149,0.072,0c0.02-0.15,0.048-0.998,0.073-0.998c0.018,0,0.049,0.849,0.068,0.998
	c0.023,0.149,0.05,0,0.074,0h0.722"/>
<circle fill="#71CCD8" cx="507.314" cy="40.012" r="15.067"/>
<path fill="none" stroke="#FFFFFF" stroke-width="0.75" d="M496.161,44.18c0.024,2.842,0.039,4.374,0.047,4.607
	c0.015,0.519,0.033-1.154,0.047-1.154s0.035,1.068,0.047,1.154c0.017,0.087,0.035-0.577,0.048-0.577
	c0.018,0,0.034,0.403,0.047,0.577c0.018,0.171,0.035,0.491,0.049,0.577c0.017,0.086,0.032,0,0.049,0h0.526
	c0.014,0,0.031,0.086,0.046,0s0.033-0.405,0.047-0.577c0.017-0.173,0.035-0.661,0.047-0.577c0.017,0.087,0.035,0.979,0.05,1.153
	c0.014,0.171,0.032,0,0.047,0c0.014,0,0.033,0.086,0.047,0s0.032-0.577,0.047-0.577s0.032,0.491,0.05,0.577
	c0.014,0.086,0.032,0,0.047,0h0.189c0.014,0,0.033,0.086,0.049,0c0.013-0.086,0.031-0.577,0.048-0.577
	c0.012,0,0.029,0.577,0.047,0.577c0.012,0,0.032-0.577,0.047-0.577c0.012,0,0.034,0.491,0.047,0.577c0.017,0.086,0.032,0,0.047,0
	h4.092c0.014,0,0.033,0.086,0.047,0c0.017-0.086,0.033-0.577,0.048-0.577c0.016,0,0.031,0.491,0.047,0.577s0.034,0,0.049,0h4.662
	c0.016,0,0.033,0.086,0.049,0c0.014-0.086,0.031-0.405,0.047-0.577c0.015-0.173,0.03-0.577,0.048-0.577
	c0.014,0,0.031,0.403,0.047,0.577c0.014,0.171,0.032,0.491,0.048,0.577s0.031,0,0.047,0h1.667c0.016,0,0.034,0.086,0.046,0
	c0.018-0.086,0.035-0.577,0.047-0.577c0.016,0,0.035,0.748,0.05,0.577c0.015-0.174,0.033-1.73,0.047-1.73s0.033,1.47,0.049,1.73
	c0.015,0.256,0.033,0,0.048,0h0.663c0.016,0,0.033,0.086,0.048,0c0.017-0.086,0.032-0.577,0.049-0.577
	c0.014,0,0.033,0.491,0.047,0.577c0.015,0.086,0.033,0,0.05,0h0.997c0.015,0,0.032,1.209,0.05,0c0.014-1.21,0.029-7.719,0.046-8.062
	c0.015-0.348,0.033,4.547,0.049,5.758c0.013,1.208,0.031,1.958,0.047,2.304c0.016,0.346,0.033,0,0.048,0h0.382
	c0.015,0,0.031,0.346,0.047,0c0.014-0.345,0.033-1.786,0.047-2.304c0.015-0.52,0.033-1.066,0.05-1.152
	c0.014-0.087,0.033,0.056,0.047,0.576c0.014,0.517,0.032,2.446,0.047,2.88c0.015,0.43,0.032,0,0.047,0h0.143
	c0.016,0,0.033,0.086,0.047,0c0.017-0.086,0.033-0.231,0.05-0.577c0.012-0.345,0.033-1.815,0.047-1.727
	c0.012,0.084,0.033,2.993,0.047,2.304c0.015-0.692,0.032-6.913,0.048-6.913s0.034,6.047,0.047,6.913
	c0.016,0.862,0.034-1.153,0.049-1.153s0.032,1.325,0.046,1.153c0.018-0.174,0.033-1.354,0.048-2.304
	c0.017-0.951,0.035-3.255,0.049-4.032c0.015-0.777,0.033-0.894,0.049-1.153c0.013-0.261,0.031-0.317,0.048-0.575
	c0.014-0.259,0.03-1.846,0.047-1.153c0.014,0.69,0.031,5.241,0.047,5.76c0.014,0.517,0.03-2.304,0.047-2.304
	s0.036,4.635,0.052,2.304c0.014-2.333,0.032-15.694,0.046-17.854c0.015-2.159,0.033,0.863,0.047,3.453
	c0.016,2.594,0.033,11.32,0.049,13.825c0.014,2.503,0.031,3.31,0.048,2.877c0.014-0.431,0.033-4.982,0.047-5.759
	s0.033,0.316,0.049,0.578c0.013,0.259,0.033,1.152,0.046,1.152c0.014,0,0.033-1.929,0.047-1.152
	c0.016,0.776,0.034,5.385,0.049,6.335c0.014,0.948,0.032,0,0.049,0c0.013,0,0.03,1.38,0.047,0c0.013-1.383,0.033-8.006,0.047-9.215
	c0.015-1.211,0.033,0.632,0.047,1.153c0.018,0.516,0.033,1.87,0.047,2.303c0.017,0.432,0.035-0.202,0.05,0.576
	c0.014,0.776,0.033,4.346,0.049,4.607c0.014,0.26,0.03-2.62,0.047-2.879c0.015-0.262,0.03,1.844,0.048,1.152
	c0.014-0.691,0.029-5.156,0.047-5.759c0.014-0.606,0.03,1.64,0.046,1.727c0.015,0.086,0.033,0.057,0.047-1.153
	c0.016-1.208,0.035-7.43,0.05-6.911c0.012,0.517,0.033,9.588,0.047,10.366c0.014,0.776,0.033-4.58,0.049-5.183
	c0.015-0.604,0.031,0.46,0.047,1.153c0.015,0.69,0.033,3.023,0.048,3.454c0.014,0.432,0.034-1.008,0.049-0.575
	c0.014,0.433,0.032,2.765,0.049,3.453c0.015,0.691,0.032,0.894,0.048,1.155c0.014,0.26,0.031,0.833,0.046,0.577
	c0.015-0.26,0.033-1.873,0.047-2.304c0.015-0.432,0.035-0.836,0.047-0.576c0.017,0.258,0.035,1.873,0.048,2.303
	c0.016,0.431,0.035,0.663,0.049,0.577c0.014-0.086,0.033-0.03,0.047-1.154c0.015-1.121,0.035-5.816,0.05-6.334
	c0.014-0.518,0.031,2.363,0.047,2.879c0.016,0.52,0.032,0.146,0.047,0.578c0.014,0.432,0.032,2.82,0.046,2.3
	c0.016-0.515,0.035-5.845,0.05-5.757c0.015,0.086,0.032,5.386,0.047,6.334c0.017,0.95,0.033,0.259,0.047,0
	c0.017-0.257,0.033-1.467,0.049-1.726c0.015-0.26,0.033-0.434,0.048,0c0.014,0.431,0.035,3.136,0.047,2.88
	c0.014-0.26,0.034-4.089,0.049-4.609c0.013-0.516,0.032,1.413,0.045,1.154c0.017-0.262,0.034-3.052,0.049-2.88
	s0.033,4.203,0.047,4.032c0.017-0.174,0.033-5.098,0.047-5.184c0.018-0.088,0.035,3.743,0.05,4.608
	c0.014,0.863,0.032,0.98,0.047,1.15c0.014,0.174,0.033-0.259,0.049,0c0.012,0.261,0.033,1.47,0.047,1.73c0.017,0.256,0.034,0,0.05,0
	h2.043"/>
<circle fill="none" stroke="#F89521" stroke-width="3" cx="507.314" cy="39.46" r="15.923"/>
<circle fill="#FFFFFF" stroke="#939598" stroke-width="3.2" cx="628.303" cy="105.986" r="10.841"/>
<line fill="none" stroke="#D2D3D4" stroke-width="4" x1="745.365" y1="144.076" x2="745.365" y2="31.665"/>
<polyline fill="none" stroke="#CECCCC" stroke-width="2.4" points="736.841,70.994 745.13,62.7 745.13,70.994 "/>
<circle fill="#71CCD8" cx="801.837" cy="87.603" r="10.148"/>
<path fill="none" stroke="#FFFFFF" stroke-width="0.75" d="M794.901,93.467c0.032,0.532,0.052,0.802,0.06,0.802
	c0.02,0,0.043-0.442,0.059-0.802c0.019-0.362,0.041-1.724,0.056-1.604c0.02,0.12,0.043,2.165,0.061,2.406
	c0.02,0.237,0.044-0.802,0.058-0.802c0.02,0,0.043,0.681,0.057,0.802c0.021,0.119,0.044,0,0.061,0h0.695c0.018,0,0.04,0.237,0.057,0
	c0.019-0.24,0.042-1.604,0.06-1.604s0.04,1.363,0.057,1.604c0.019,0.237,0.04,0,0.058,0h0.58c0.019,0,0.041,0.237,0.06,0
	c0.018-0.24,0.039-1.604,0.055-1.604c0.021,0,0.044,1.363,0.06,1.604c0.021,0.237,0.041,0,0.06,0h0.114c0.021,0,0.043,0.237,0.059,0
	c0.02-0.24,0.041-1.604,0.058-1.604c0.019,0,0.041,1.363,0.057,1.604c0.021,0.237,0.043,0,0.061,0h0.116
	c0.019,0,0.041,0.119,0.058,0c0.02-0.121,0.041-0.802,0.057-0.802c0.019,0,0.043,0.681,0.06,0.802c0.018,0.119,0.041,0,0.057,0
	h1.103c0.018,0,0.04,0.119,0.057,0c0.021-0.121,0.041-0.802,0.06-0.802c0.018,0,0.039,0.681,0.057,0.802
	c0.019,0.119,0.041,0,0.058,0h0.521c0.02,0,0.041,0.119,0.059,0c0.019-0.121,0.044-0.802,0.06-0.802
	c0.018,0,0.041,0.802,0.055,0.802c0.023,0,0.044-0.802,0.062-0.802c0.02,0,0.039,0.681,0.058,0.802c0.019,0.119,0.041,0,0.057,0
	h3.07c0.017,0,0.039,0.237,0.058,0c0.016-0.24,0.039-1.604,0.059-1.604c0.017,0,0.039,1.363,0.06,1.604c0.014,0.237,0.039,0,0.057,0
	h0.636c0.017,0,0.037,0.237,0.058,0c0.016-0.24,0.039-1.244,0.06-1.604c0.017-0.358,0.039-0.802,0.057-0.802
	c0.017,0,0.039,1.283,0.058,0.802c0.017-0.481,0.041-4.125,0.06-4.005c0.017,0.121,0.038,4.565,0.06,4.808
	c0.014,0.237,0.038-3.327,0.057-3.207c0.015,0.123,0.039,3.405,0.058,4.008c0.016,0.599,0.039,0.599,0.057,0
	c0.019-0.603,0.041-2.324,0.06-4.008c0.018-1.679,0.039-7.446,0.057-7.206c0.019,0.239,0.042,7.367,0.06,8.808
	c0.02,1.442,0.039,1.283,0.06,0.802c0.017-0.481,0.039-4.245,0.057-4.005c0.02,0.242,0.039,4.885,0.061,5.608
	c0.016,0.719,0.038-0.082,0.057-0.802c0.019-0.721,0.04-4.124,0.058-4.005s0.04,4.083,0.059,4.807c0.019,0.719,0.04,0,0.06,0
	c0.014,0,0.039,0.237,0.058,0c0.018-0.24,0.039,0.68,0.059-1.604c0.017-2.282,0.039-13.375,0.058-13.614
	c0.018-0.24,0.039,9.97,0.059,12.011c0.02,2.043,0.039,1.245,0.058,1.604c0.017,0.36,0.039,0.803,0.059,0.803
	s0.039-0.803,0.061-0.803c0.014,0,0.036,1.04,0.057,0.803c0.017-0.242,0.038-2.526,0.058-2.407c0.019,0.123,0.04,2.727,0.06,3.207
	c0.016,0.479,0.041,0,0.057,0h0.232c0.018,0,0.039,0.119,0.058,0c0.019-0.121,0.041-0.802,0.059-0.802s0.039,0.681,0.059,0.802
	c0.019,0.119,0.038,0.237,0.06,0c0.014-0.24,0.038-1.482,0.057-1.604c0.017-0.117,0.038,0.56,0.058,0.803
	c0.018,0.237,0.041,0.801,0.059,0.801c0.017,0,0.041-0.801,0.058-0.801c0.016,0,0.041,0.68,0.059,0.801
	c0.017,0.119,0.039,0.237,0.06,0c0.016-0.24,0.039-1.482,0.057-1.604c0.018-0.117,0.039,0.804,0.06,0.804
	c0.018,0,0.039-0.804,0.058-0.804c0.015,0,0.039,0.681,0.057,0.804c0.018,0.115,0.039-0.122,0.059,0
	c0.018,0.115,0.04,0.679,0.059,0.801c0.017,0.118,0.04,0,0.058,0c0.016,0,0.038,0.599,0.057,0c0.019-0.603,0.041-4.008,0.06-4.008
	c0.018,0,0.041,3.405,0.057,4.008c0.019,0.599,0.041,0,0.06,0h0.116c0.017,0,0.039,0.359,0.06,0
	c0.015-0.362,0.037-2.285,0.057-2.406c0.018-0.12,0.039,1.242,0.059,1.605c0.016,0.358,0.04,0.801,0.059,0.801
	c0.017,0,0.04-0.443,0.058-0.801c0.016-0.364,0.038-1.725,0.057-1.605s0.039,2.406,0.06,2.406c0.018,0,0.039-2.165,0.06-2.406
	c0.016-0.239,0.039,0.923,0.057,0.802c0.019-0.117,0.041-1.841,0.06-1.604c0.017,0.243,0.039,2.727,0.057,3.208
	c0.02,0.479,0.041,0,0.058,0h0.061c0.016,0,0.039,0.237,0.059,0c0.016-0.24,0.038-1.483,0.06-1.604
	c0.016-0.117,0.037,0.56,0.057,0.804c0.016,0.237,0.038,0.68,0.058,0.801c0.016,0.118,0.041,0,0.057,0h1.042
	c0.019,0,0.039,0.118,0.061,0c0.016-0.121,0.035-0.801,0.057-0.801c0.017,0,0.038,0.68,0.06,0.801c0.016,0.118,0.038,0,0.059,0
	h0.577"/>
<circle fill="#D1E8C6" cx="689.399" cy="87.604" r="13.529"/>
<path fill="none" stroke="#FFFFFF" stroke-width="0.75" d="M679.832,92.516c0.024,2.55,0.034,3.929,0.043,4.139
	c0.015,0.464,0.03-1.036,0.044-1.036c0.016,0,0.029,0.957,0.042,1.036c0.014,0.075,0.03-0.518,0.043-0.518
	c0.014,0,0.028,0.363,0.043,0.518c0.014,0.153,0.03,0.438,0.043,0.514c0.014,0.08,0.03,0,0.042,0h0.473c0.011,0,0.029,0.08,0.041,0
	c0.01-0.076,0.031-0.363,0.043-0.514c0.014-0.155,0.03-0.594,0.043-0.518c0.012,0.075,0.03,0.878,0.042,1.032
	c0.014,0.155,0.027,0,0.041,0c0.013,0,0.031,0.08,0.044,0c0.014-0.076,0.028-0.514,0.043-0.514c0.012,0,0.027,0.438,0.043,0.514
	c0.012,0.08,0.03,0,0.042,0h0.171c0.014,0,0.029,0.08,0.044,0c0.011-0.076,0.026-0.514,0.041-0.514c0.014,0,0.029,0.514,0.043,0.514
	c0.012,0,0.031-0.514,0.043-0.514s0.03,0.438,0.041,0.514c0.017,0.08,0.03,0,0.04,0h3.676c0.012,0,0.028,0.08,0.043,0
	c0.014-0.076,0.028-0.514,0.043-0.514c0.012,0,0.028,0.438,0.043,0.514c0.014,0.08,0.028,0,0.042,0h4.187
	c0.014,0,0.028,0.08,0.043,0c0.015-0.076,0.028-0.363,0.04-0.514c0.016-0.155,0.029-0.518,0.043-0.518
	c0.018,0,0.031,0.363,0.044,0.518c0.012,0.153,0.03,0.438,0.043,0.514c0.014,0.08,0.028,0,0.043,0h1.496c0.014,0,0.03,0.08,0.042,0
	c0.013-0.076,0.029-0.514,0.043-0.514s0.031,0.67,0.041,0.514c0.015-0.154,0.029-1.55,0.043-1.55c0.015,0,0.03,1.319,0.046,1.55
	c0.01,0.233,0.027,0,0.04,0h0.598c0.014,0,0.028,0.08,0.042,0c0.013-0.076,0.029-0.514,0.041-0.514c0.015,0,0.033,0.438,0.045,0.514
	c0.012,0.08,0.029,0,0.041,0h0.899c0.011,0,0.026,1.087,0.04,0c0.016-1.084,0.029-6.931,0.044-7.238
	c0.012-0.312,0.028,4.085,0.043,5.172c0.012,1.084,0.028,1.758,0.043,2.066c0.012,0.311,0.028,0,0.043,0h0.341
	c0.014,0,0.029,0.311,0.043,0c0.015-0.309,0.028-1.602,0.045-2.066c0.013-0.467,0.028-0.957,0.042-1.036
	c0.012-0.077,0.027,0.053,0.042,0.518c0.015,0.464,0.028,2.197,0.043,2.584c0.01,0.388,0.029,0,0.041,0h0.128
	c0.014,0,0.031,0.08,0.044,0c0.012-0.076,0.028-0.207,0.043-0.514c0.012-0.313,0.03-1.631,0.043-1.551
	c0.01,0.077,0.028,2.686,0.042,2.066c0.013-0.62,0.029-6.205,0.041-6.205c0.014,0,0.031,5.429,0.043,6.205
	c0.015,0.776,0.031-1.032,0.043-1.032c0.013,0,0.03,1.188,0.041,1.032c0.015-0.154,0.032-1.214,0.045-2.066
	c0.013-0.854,0.031-2.921,0.043-3.621c0.012-0.699,0.031-0.804,0.043-1.037c0.012-0.232,0.029-0.283,0.041-0.515
	c0.012-0.232,0.028-1.656,0.043-1.031c0.013,0.619,0.03,4.704,0.04,5.167c0.016,0.464,0.031-2.07,0.046-2.07
	c0.014,0,0.032,4.164,0.045,2.07c0.012-2.095,0.028-14.088,0.041-16.029c0.014-1.941,0.03,0.774,0.045,3.102
	c0.01,2.327,0.028,10.163,0.04,12.413c0.013,2.248,0.031,2.974,0.043,2.585c0.016-0.387,0.029-4.476,0.043-5.172
	c0.013-0.699,0.029,0.284,0.044,0.518c0.012,0.232,0.029,1.033,0.041,1.033c0.014,0,0.027-1.732,0.042-1.033
	c0.017,0.7,0.031,4.834,0.045,5.687c0.013,0.853,0.027,0,0.041,0s0.029,1.241,0.043,0c0.015-1.239,0.028-7.186,0.043-8.27
	c0.013-1.087,0.03,0.565,0.044,1.031c0.012,0.465,0.027,1.679,0.042,2.067c0.013,0.392,0.031-0.177,0.043,0.519
	c0.012,0.699,0.029,3.903,0.043,4.139c0.012,0.232,0.026-2.352,0.043-2.588c0.012-0.232,0.026,1.656,0.042,1.036
	c0.012-0.621,0.027-4.631,0.041-5.172c0.014-0.542,0.029,1.473,0.044,1.551c0.012,0.077,0.028,0.051,0.043-1.037
	c0.012-1.084,0.027-6.668,0.041-6.205c0.012,0.463,0.03,8.61,0.04,9.31c0.017,0.697,0.033-4.114,0.045-4.652
	c0.014-0.546,0.029,0.413,0.043,1.031c0.015,0.621,0.029,2.716,0.043,3.104c0.013,0.388,0.03-0.906,0.043-0.518
	c0.015,0.388,0.03,2.483,0.045,3.103c0.013,0.62,0.028,0.801,0.043,1.036c0.012,0.232,0.029,0.747,0.041,0.514
	c0.012-0.232,0.031-1.678,0.043-2.066s0.028-0.75,0.043-0.518s0.03,1.682,0.04,2.07c0.018,0.383,0.031,0.594,0.046,0.514
	c0.012-0.076,0.026-0.024,0.043-1.032c0.012-1.007,0.028-5.222,0.041-5.691c0.012-0.462,0.03,2.124,0.043,2.589
	c0.014,0.464,0.03,0.127,0.045,0.517c0.008,0.388,0.028,2.535,0.04,2.067c0.013-0.464,0.031-5.25,0.043-5.172
	c0.013,0.08,0.029,4.839,0.044,5.691c0.012,0.851,0.027,0.232,0.041,0c0.014-0.233,0.029-1.32,0.042-1.551
	c0.015-0.232,0.031-0.388,0.045,0c0.011,0.388,0.029,2.816,0.041,2.584c0.012-0.231,0.031-3.67,0.043-4.135
	c0.013-0.464,0.03,1.269,0.041,1.032c0.015-0.232,0.03-2.74,0.044-2.584c0.014,0.152,0.029,3.774,0.042,3.621
	c0.012-0.156,0.03-4.578,0.043-4.658c0.014-0.077,0.03,3.363,0.043,4.139c0.012,0.775,0.03,0.88,0.043,1.033
	c0.012,0.155,0.028-0.232,0.042,0s0.029,1.32,0.043,1.55c0.016,0.232,0.029,0,0.046,0h1.832"/>
<polyline fill="none" stroke="#CECCCC" stroke-width="2.4" points="754.424,101.329 746.134,109.624 746.134,101.329 "/>
<path fill="#149BD7" d="M761.551,31.4c0,8.234-6.673,14.905-14.903,14.905c-8.238,0-14.909-6.671-14.909-14.905
	c0-8.235,6.671-14.906,14.909-14.906C754.878,16.494,761.551,23.166,761.551,31.4z"/>
<circle fill="none" stroke="#F89521" stroke-width="3" cx="746.646" cy="31.4" r="16.037"/>
<path fill="none" stroke="#FFFFFF" stroke-width="0.75" d="M736.492,38.581c0.045,0.663,0.072,0.999,0.085,0.999
	c0.023,0,0.057-0.55,0.082-0.999c0.023-0.454,0.057-2.155,0.079-2.003c0.025,0.151,0.061,2.702,0.084,3.001
	c0.024,0.295,0.06-0.999,0.081-0.999c0.027,0,0.06,0.849,0.082,0.999c0.026,0.149,0.062,0,0.084,0h0.985c0.024,0,0.06,0.295,0.079,0
	c0.029-0.299,0.063-2,0.084-2c0.024,0,0.06,1.701,0.082,2c0.026,0.295,0.059,0,0.082,0h0.823c0.024,0,0.059,0.295,0.082,0
	c0.024-0.299,0.058-2,0.079-2c0.027,0,0.062,1.701,0.086,2c0.024,0.295,0.058,0,0.082,0h0.163c0.025,0,0.061,0.295,0.082,0
	c0.025-0.299,0.058-2,0.084-2c0.022,0,0.058,1.701,0.082,2c0.024,0.295,0.057,0,0.08,0h0.165c0.024,0,0.06,0.149,0.079,0
	c0.029-0.15,0.06-0.999,0.082-0.999c0.026,0,0.062,0.849,0.084,0.999c0.026,0.149,0.059,0,0.082,0h1.563
	c0.024,0,0.057,0.149,0.082,0c0.024-0.15,0.057-0.999,0.081-0.999c0.027,0,0.06,0.849,0.082,0.999c0.026,0.149,0.06,0,0.084,0h0.735
	c0.029,0,0.062,0.149,0.084,0c0.026-0.15,0.062-0.999,0.084-0.999c0.024,0,0.059,0.999,0.078,0.999c0.03,0,0.063-0.999,0.085-0.999
	c0.027,0,0.058,0.849,0.08,0.999c0.028,0.149,0.062,0,0.081,0H748c0.023,0,0.06,0.295,0.082,0c0.022-0.299,0.058-2,0.083-2
	c0.023,0,0.056,1.701,0.083,2c0.02,0.295,0.055,0,0.081,0h0.903c0.023,0,0.055,0.295,0.082,0c0.024-0.299,0.056-1.551,0.083-2
	c0.021-0.45,0.056-1.001,0.08-1.001c0.022,0,0.06,1.599,0.084,1.001c0.021-0.599,0.057-5.151,0.082-5
	c0.022,0.153,0.057,5.699,0.081,6.002c0.023,0.295,0.058-4.154,0.082-4.002c0.022,0.151,0.058,4.25,0.082,5
	c0.024,0.749,0.06,0.749,0.08,0c0.027-0.752,0.059-2.9,0.084-5c0.023-2.097,0.057-9.297,0.083-8.998
	c0.022,0.302,0.058,9.198,0.082,10.997c0.022,1.799,0.056,1.599,0.081,1.001c0.023-0.599,0.056-5.301,0.085-5
	c0.021,0.303,0.055,6.099,0.079,7c0.025,0.899,0.057-0.103,0.082-0.999c0.024-0.903,0.06-5.149,0.081-5.003
	c0.025,0.15,0.058,5.101,0.084,6.002c0.022,0.899,0.058,0,0.082,0c0.022,0,0.057,0.295,0.084,0c0.021-0.299,0.055,0.85,0.081-2
	c0.023-2.851,0.057-16.696,0.082-16.997c0.022-0.297,0.056,12.449,0.08,14.996c0.024,2.55,0.06,1.551,0.084,2.001
	c0.021,0.449,0.055,1.001,0.082,1.001c0.023,0,0.059-1.001,0.083-1.001c0.023,0,0.053,1.297,0.08,1.001
	c0.022-0.303,0.058-3.154,0.081-3.002c0.025,0.152,0.06,3.4,0.083,4.001c0.023,0.598,0.059,0,0.083,0h0.329
	c0.022,0,0.058,0.149,0.08,0c0.023-0.15,0.057-0.999,0.083-0.999c0.023,0,0.056,0.849,0.082,0.999c0.025,0.149,0.058,0.295,0.082,0
	c0.022-0.299,0.056-1.851,0.084-2c0.02-0.15,0.055,0.699,0.08,1.001c0.021,0.295,0.057,0.999,0.081,0.999
	c0.025,0,0.06-0.999,0.082-0.999c0.024,0,0.062,0.849,0.083,0.999c0.023,0.149,0.058,0.295,0.085,0c0.021-0.299,0.055-1.851,0.079-2
	c0.022-0.15,0.057,1.001,0.084,1.001c0.022,0,0.055-1.001,0.081-1.001c0.023,0,0.058,0.849,0.082,1.001
	c0.022,0.144,0.056-0.153,0.079,0c0.025,0.144,0.061,0.849,0.085,0.999c0.021,0.149,0.057,0,0.082,0c0.021,0,0.055,0.749,0.081,0
	c0.023-0.752,0.058-5,0.082-5s0.058,4.25,0.081,5c0.025,0.749,0.058,0,0.085,0h0.163c0.022,0,0.058,0.449,0.083,0
	c0.023-0.451,0.056-2.852,0.08-3.001c0.024-0.151,0.06,1.549,0.086,2.003c0.022,0.448,0.055,0.999,0.082,0.999
	c0.021,0,0.055-0.55,0.08-0.999c0.022-0.454,0.058-2.155,0.081-2.003c0.022,0.151,0.058,3.001,0.082,3.001
	c0.022,0,0.056-2.703,0.084-3.001c0.022-0.298,0.055,1.152,0.08,1.001c0.023-0.15,0.057-2.299,0.083-2.001
	c0.025,0.301,0.058,3.4,0.082,4.001c0.024,0.598,0.058,0,0.081,0h0.083c0.021,0,0.055,0.295,0.083,0
	c0.021-0.299,0.055-1.851,0.084-2c0.021-0.15,0.054,0.699,0.079,1.001c0.025,0.295,0.059,0.849,0.084,0.999
	c0.021,0.149,0.056,0,0.08,0h1.479c0.023,0,0.058,0.149,0.082,0c0.022-0.15,0.056-0.999,0.084-0.999c0.022,0,0.055,0.849,0.08,0.999
	c0.021,0.149,0.057,0,0.083,0h0.822"/>
<circle fill="#71CCD8" cx="747.496" cy="142.209" r="15.067"/>
<path fill="none" stroke="#FFFFFF" stroke-width="0.75" d="M735.295,146.377c0.027,2.842,0.041,4.374,0.05,4.607
	c0.014,0.518,0.032-1.155,0.047-1.155c0.014,0,0.034,1.068,0.047,1.155c0.017,0.087,0.034-0.578,0.047-0.578
	c0.017,0,0.034,0.404,0.047,0.578c0.017,0.17,0.034,0.49,0.049,0.576c0.015,0.085,0.033,0,0.047,0h0.525
	c0.015,0,0.035,0.085,0.047,0c0.015-0.086,0.035-0.406,0.05-0.576c0.014-0.174,0.033-0.662,0.047-0.578
	c0.014,0.087,0.032,0.98,0.047,1.154c0.017,0.172,0.032,0,0.047,0c0.017,0,0.032,0.085,0.049,0c0.015-0.086,0.031-0.576,0.047-0.576
	s0.031,0.49,0.049,0.576c0.014,0.085,0.031,0,0.048,0h0.19c0.014,0,0.032,0.085,0.047,0c0.014-0.086,0.032-0.576,0.046-0.576
	c0.016,0,0.033,0.576,0.05,0.576c0.013,0,0.032-0.576,0.047-0.576c0.012,0,0.033,0.49,0.047,0.576c0.017,0.085,0.033,0,0.047,0
	h4.093c0.012,0,0.032,0.085,0.044,0c0.017-0.086,0.035-0.576,0.049-0.576c0.016,0,0.033,0.49,0.048,0.576
	c0.015,0.085,0.032,0,0.049,0h4.663c0.014,0,0.031,0.085,0.047,0c0.016-0.086,0.032-0.406,0.046-0.576
	c0.015-0.174,0.033-0.578,0.049-0.578c0.013,0,0.031,0.404,0.048,0.578c0.012,0.17,0.033,0.49,0.047,0.576
	c0.014,0.085,0.033,0,0.047,0h1.668c0.014,0,0.033,0.085,0.047,0c0.014-0.086,0.033-0.576,0.047-0.576
	c0.015,0,0.033,0.748,0.048,0.576c0.016-0.173,0.031-1.73,0.049-1.73c0.014,0,0.032,1.471,0.047,1.73c0.014,0.257,0.032,0,0.048,0
	h0.665c0.015,0,0.033,0.085,0.047,0c0.015-0.086,0.032-0.576,0.048-0.576c0.014,0,0.034,0.49,0.049,0.576
	c0.014,0.085,0.032,0,0.047,0h0.999c0.015,0,0.033,1.208,0.047,0c0.015-1.21,0.033-7.719,0.047-8.062
	c0.015-0.348,0.033,4.548,0.05,5.759c0.014,1.208,0.033,1.958,0.047,2.303c0.014,0.345,0.034,0,0.047,0h0.383
	c0.014,0,0.031,0.345,0.047,0c0.014-0.346,0.034-1.787,0.049-2.303c0.014-0.521,0.032-1.067,0.047-1.152
	c0.015-0.088,0.032,0.056,0.047,0.575c0.015,0.517,0.032,2.447,0.049,2.88c0.015,0.43,0.031,0,0.045,0h0.146
	c0.014,0,0.03,0.085,0.047,0c0.015-0.086,0.032-0.232,0.048-0.576c0.014-0.345,0.033-1.815,0.049-1.727
	c0.012,0.084,0.032,2.993,0.046,2.303c0.015-0.692,0.033-6.913,0.047-6.913c0.016,0,0.033,6.047,0.048,6.913
	c0.016,0.863,0.035-1.154,0.047-1.154c0.016,0,0.035,1.326,0.049,1.154c0.015-0.173,0.033-1.354,0.047-2.303
	c0.015-0.952,0.033-3.255,0.05-4.033c0.014-0.777,0.032-0.894,0.047-1.153c0.014-0.261,0.032-0.317,0.047-0.574
	c0.015-0.26,0.032-1.846,0.048-1.154c0.014,0.691,0.031,5.241,0.046,5.761c0.015,0.516,0.033-2.305,0.047-2.305
	c0.019,0,0.037,4.636,0.051,2.305c0.015-2.333,0.033-15.694,0.048-17.854c0.016-2.159,0.033,0.862,0.049,3.453
	c0.014,2.593,0.031,11.32,0.047,13.825c0.015,2.504,0.033,3.31,0.047,2.878c0.017-0.432,0.032-4.983,0.05-5.76
	c0.012-0.778,0.03,0.316,0.047,0.578c0.014,0.258,0.032,1.153,0.046,1.153c0.016,0,0.035-1.93,0.048-1.153
	c0.017,0.776,0.034,5.386,0.049,6.336c0.015,0.949,0.033,0,0.047,0s0.033,1.38,0.049,0c0.013-1.383,0.031-8.006,0.046-9.216
	c0.016-1.21,0.035,0.633,0.049,1.154c0.014,0.516,0.032,1.869,0.047,2.302c0.015,0.433,0.034-0.201,0.049,0.577
	c0.013,0.776,0.032,4.346,0.047,4.607c0.015,0.258,0.031-2.622,0.047-2.88c0.015-0.262,0.033,1.845,0.047,1.153
	c0.016-0.691,0.033-5.156,0.048-5.759c0.014-0.606,0.032,1.638,0.049,1.726c0.012,0.085,0.033,0.058,0.047-1.153
	c0.012-1.208,0.032-7.43,0.047-6.911c0.013,0.517,0.032,9.587,0.048,10.367c0.016,0.776,0.032-4.581,0.049-5.184
	c0.016-0.603,0.03,0.46,0.047,1.154c0.017,0.689,0.032,3.022,0.046,3.453c0.016,0.432,0.035-1.008,0.052-0.574
	c0.015,0.432,0.031,2.764,0.049,3.453c0.012,0.691,0.031,0.895,0.047,1.155c0.013,0.258,0.033,0.833,0.048,0.576
	c0.012-0.259,0.032-1.872,0.047-2.303c0.014-0.433,0.032-0.836,0.047-0.577c0.017,0.259,0.034,1.874,0.047,2.304
	c0.017,0.43,0.034,0.662,0.05,0.576c0.014-0.086,0.032-0.03,0.046-1.154c0.015-1.121,0.033-5.816,0.047-6.335
	c0.016-0.518,0.035,2.363,0.05,2.879c0.014,0.52,0.032,0.145,0.047,0.578c0.012,0.431,0.033,2.821,0.047,2.3
	c0.014-0.515,0.033-5.845,0.047-5.757c0.017,0.087,0.033,5.384,0.048,6.335c0.016,0.95,0.031,0.259,0.047,0s0.034-1.467,0.049-1.726
	c0.014-0.259,0.032-0.433,0.048,0c0.014,0.431,0.033,3.136,0.048,2.88c0.013-0.259,0.033-4.089,0.047-4.609
	c0.015-0.516,0.033,1.412,0.045,1.154c0.017-0.262,0.035-3.053,0.049-2.88c0.017,0.171,0.033,4.203,0.048,4.033
	c0.016-0.175,0.035-5.098,0.049-5.185c0.014-0.088,0.032,3.744,0.049,4.608c0.015,0.863,0.03,0.98,0.048,1.149
	c0.014,0.175,0.031-0.258,0.048,0c0.013,0.261,0.033,1.471,0.047,1.73c0.016,0.257,0.035,0,0.05,0h2.044"/>
<circle fill="none" stroke="#F89521" stroke-width="3" cx="747.496" cy="141.658" r="15.923"/>
<polyline fill="none" stroke="#CECCCC" stroke-width="2.4" points="736.841,83.192 745.13,74.901 745.13,83.192 "/>
<polyline fill="none" stroke="#CECCCC" stroke-width="2.4" points="736.841,112.629 745.13,104.337 745.13,112.629 "/>
<polyline fill="none" stroke="#CECCCC" stroke-width="2.4" points="767.188,44.114 767.19,55.841 761.326,49.976 "/>
<polyline fill="none" stroke="#CECCCC" stroke-width="2.4" points="774.28,76.858 774.278,65.13 780.145,70.995 "/>
<polyline fill="none" stroke="#CECCCC" stroke-width="2.4" points="700.793,63.917 712.518,63.916 706.653,69.78 "/>
<polyline fill="none" stroke="#CECCCC" stroke-width="2.4" points="728.209,61.333 716.482,61.336 722.347,55.47 "/>
<path fill="none" stroke="#010101" stroke-miterlimit="10" d="M766.106,190.738"/>
<path fill="none" stroke="#010101" stroke-miterlimit="10" d="M725.748,190.738"/>
<circle fill="#FFFFFF" stroke="#939598" stroke-width="3.2" cx="380.339" cy="95.944" r="10.841"/>
<line fill="none" stroke="#010101" stroke-miterlimit="10" x1="740.063" y1="202.99" x2="753.234" y2="202.99"/>
<path fill="none" stroke="#010101" stroke-miterlimit="10" d="M760.36,202.99c0-7.239-5.862-13.099-13.099-13.099
	c-7.227,0-13.095,5.859-13.095,13.099"/>
<line fill="none" stroke="#DEDEDD" stroke-width="2" x1="24.003" y1="262.695" x2="816.622" y2="262.695"/>
<line fill="none" stroke="#DEDEDD" stroke-width="2" x1="24.003" y1="305.816" x2="816.622" y2="305.816"/>
<line fill="none" stroke="#DEDEDD" stroke-width="2" x1="24.003" y1="238.917" x2="816.622" y2="238.917"/>
<line fill="none" stroke="#DEDEDD" stroke-width="2" x1="24.003" y1="283.518" x2="816.622" y2="283.518"/>
<circle fill="#8989BA" cx="39.826" cy="272.366" r="10.592"/>
<path fill="#6E6F72" d="M44.211,260.319c3.708,1.349,6.589,4.333,7.81,8.085l-2.121,0.688c-1.007-3.101-3.388-5.563-6.452-6.679
	L44.211,260.319z"/>
<path fill="#6E6F72" d="M52.64,272.815c-0.137,3.944-2.084,7.605-5.278,9.924l-1.31-1.805c2.638-1.915,4.247-4.939,4.359-8.197
	L52.64,272.815z"/>
<path fill="#6E6F72" d="M43.36,284.693c-3.793,1.089-7.878,0.366-11.072-1.953l1.311-1.805c2.638,1.917,6.011,2.511,9.145,1.612
	L43.36,284.693z"/>
<path fill="#6E6F72" d="M29.195,279.538c-2.207-3.272-2.785-7.379-1.564-11.135l2.121,0.688c-1.007,3.101-0.53,6.494,1.293,9.198
	L29.195,279.538z"/>
<path fill="#6E6F72" d="M29.721,264.472c2.431-3.109,6.157-4.929,10.104-4.929v2.23c-3.261,0-6.34,1.503-8.347,4.072L29.721,264.472
	z"/>
<circle fill="#D5DAEF" cx="48.104" cy="305.817" r="6.968"/>
<path fill="#6E6F72" d="M51.25,297.173c4.774,1.736,7.236,7.016,5.498,11.79c-1.324,3.635-4.777,6.052-8.644,6.052v-2.229
	c3.849,0,6.969-3.118,6.969-6.969c0-2.931-1.833-5.547-4.586-6.548L51.25,297.173z"/>
<path fill="#6E6F72" d="M44.959,314.462c-4.774-1.737-7.235-7.017-5.497-11.793c1.322-3.634,4.777-6.051,8.644-6.051v2.23
	c-3.849,0-6.968,3.117-6.968,6.968c0,2.931,1.831,5.547,4.584,6.547L44.959,314.462z"/>
<circle fill="#6B529B" cx="484.735" cy="304.531" r="10.554"/>
<path fill="#FCB463" d="M489.148,292.406c6.695,2.438,10.147,9.842,7.709,16.537c-1.853,5.095-6.699,8.486-12.122,8.486v-2.345
	c5.83,0,10.555-4.726,10.555-10.555c0-4.438-2.775-8.4-6.944-9.919L489.148,292.406z"/>
<path fill="#FCB463" d="M480.325,316.652c-6.696-2.438-10.147-9.839-7.712-16.534c1.855-5.096,6.698-8.488,12.122-8.488v2.347
	c-5.829,0-10.554,4.725-10.554,10.554c0,4.438,2.773,8.4,6.944,9.917L480.325,316.652z"/>
<circle fill="#D5DAEF" cx="371.973" cy="294.108" r="7.248"/>
<path fill="#6E6F72" d="M375.214,285.201c4.919,1.791,7.455,7.229,5.666,12.148c-0.189,0.517-0.423,1.019-0.699,1.497l-1.932-1.114
	c2.002-3.466,0.814-7.899-2.652-9.901c-0.366-0.21-0.749-0.39-1.145-0.533L375.214,285.201z"/>
<path fill="#6E6F72" d="M378.065,301.367c-4.01,3.364-9.987,2.841-13.353-1.168c-0.354-0.421-0.671-0.874-0.947-1.353l1.932-1.114
	c2,3.468,6.434,4.654,9.899,2.651c0.366-0.208,0.712-0.452,1.035-0.724L378.065,301.367z"/>
<path fill="#6E6F72" d="M362.64,295.754c-0.909-5.155,2.533-10.07,7.688-10.979c0.544-0.097,1.095-0.144,1.645-0.144v2.229
	c-4.002,0-7.248,3.244-7.248,7.248c0,0.422,0.038,0.843,0.11,1.26L362.64,295.754z"/>
<circle fill="#AFB4DB" cx="124.795" cy="293.672" r="8.363"/>
<path fill="#6E6F72" d="M128.416,283.719c5.498,2.002,8.333,8.081,6.333,13.577c-0.211,0.58-0.472,1.14-0.781,1.673l-1.932-1.115
	c2.31-3.997,0.938-9.113-3.061-11.423c-0.421-0.242-0.863-0.449-1.322-0.614L128.416,283.719z"/>
<path fill="#6E6F72" d="M131.603,301.788c-4.481,3.76-11.163,3.176-14.922-1.307c-0.397-0.472-0.752-0.977-1.061-1.513l1.932-1.115
	c2.309,4,7.423,5.372,11.423,3.063c0.421-0.242,0.82-0.523,1.194-0.836L131.603,301.788z"/>
<path fill="#6E6F72" d="M114.362,295.513c-1.016-5.762,2.831-11.256,8.592-12.271c0.607-0.107,1.223-0.162,1.84-0.162v2.23
	c-4.619,0-8.363,3.744-8.363,8.364c0,0.486,0.042,0.971,0.127,1.451L114.362,295.513z"/>
<circle fill="#8989BA" cx="292.674" cy="305.332" r="8.231"/>
<path fill="#6E6F72" d="M296.513,294.785c5.826,2.118,8.829,8.562,6.709,14.386c-1.614,4.434-5.827,7.387-10.547,7.387v-2.994
	c4.545,0,8.23-3.687,8.23-8.232c0-3.46-2.163-6.55-5.415-7.733L296.513,294.785z"/>
<path fill="#6E6F72" d="M288.837,315.877c-5.825-2.119-8.829-8.559-6.709-14.385c1.614-4.435,5.829-7.385,10.547-7.385v2.992
	c-4.546,0-8.231,3.685-8.231,8.229c0,3.461,2.164,6.552,5.417,7.734L288.837,315.877z"/>
<circle fill="#FEE0C2" cx="329.874" cy="307.959" r="5.344"/>
<path fill="#6E6F72" d="M332.543,300.624c4.051,1.474,6.14,5.954,4.665,10.006c-1.122,3.081-4.053,5.133-7.334,5.133v-2.229
	c3.079,0,5.576-2.496,5.576-5.573c0-2.344-1.466-4.438-3.669-5.238L332.543,300.624z"/>
<path fill="#6E6F72" d="M327.204,315.294c-4.051-1.475-6.14-5.953-4.666-10.005c1.122-3.082,4.053-5.135,7.335-5.135v2.23
	c-3.079,0-5.574,2.495-5.574,5.575c0,2.343,1.465,4.435,3.667,5.239L327.204,315.294z"/>
<circle fill="#AFB4DB" cx="676.014" cy="233.958" r="16.724"/>
<path fill="#6E6F72" d="M682.497,216.146c2.077,0.756,4.006,1.87,5.701,3.291l-1.433,1.709c-1.494-1.254-3.197-2.238-5.031-2.903
	L682.497,216.146z"/>
<path fill="#6E6F72" d="M692.429,224.479c1.104,1.916,1.868,4.011,2.252,6.187l-2.197,0.388c-0.337-1.921-1.012-3.77-1.984-5.459
	L692.429,224.479z"/>
<path fill="#6E6F72" d="M694.681,237.25c-0.384,2.176-1.147,4.271-2.252,6.185l-1.93-1.114c0.975-1.689,1.647-3.538,1.984-5.46
	L694.681,237.25z"/>
<path fill="#6E6F72" d="M688.198,248.478c-1.695,1.421-3.624,2.536-5.701,3.292l-0.763-2.096c1.834-0.668,3.537-1.648,5.031-2.904
	L688.198,248.478z"/>
<path fill="#6E6F72" d="M676.014,252.912c-2.211,0-4.404-0.387-6.482-1.143l0.762-2.096c1.835,0.667,3.771,1.008,5.723,1.008v2.23
	H676.014z"/>
<path fill="#6E6F72" d="M663.83,248.478c-1.694-1.422-3.125-3.129-4.232-5.043l1.932-1.114c0.977,1.69,2.24,3.196,3.733,4.449
	L663.83,248.478z"/>
<path fill="#6E6F72" d="M657.346,237.25c-0.383-2.179-0.383-4.406,0-6.584l2.197,0.388c-0.339,1.922-0.339,3.886,0,5.807
	L657.346,237.25z"/>
<path fill="#6E6F72" d="M659.598,224.479c1.107-1.914,2.538-3.62,4.232-5.042l1.433,1.709c-1.493,1.253-2.757,2.76-3.733,4.449
	L659.598,224.479z"/>
<path fill="#6E6F72" d="M669.531,216.146c2.078-0.757,4.271-1.144,6.482-1.144v2.23c-1.951,0-3.888,0.341-5.721,1.009
	L669.531,216.146z"/>
<circle fill="#CCB9D6" cx="523.239" cy="283.516" r="12.819"/>
<path fill="#6E6F72" d="M528.684,268.55c6.293,2.289,10.48,8.271,10.48,14.966h-3.108c0-5.388-3.37-10.202-8.435-12.043
	L528.684,268.55z"/>
<path fill="#6E6F72" d="M538.204,288.963c-2.291,6.293-8.271,10.48-14.965,10.48v-3.108c5.388,0,10.2-3.37,12.044-8.434
	L538.204,288.963z"/>
<path fill="#6E6F72" d="M517.792,298.479c-6.293-2.289-10.481-8.269-10.481-14.966h3.109c0,5.391,3.37,10.204,8.433,12.047
	L517.792,298.479z"/>
<path fill="#6E6F72" d="M508.272,278.067c2.29-6.288,8.269-10.479,14.967-10.479v3.108c-5.391,0-10.205,3.371-12.048,8.437
	L508.272,278.067z"/>
<line fill="none" stroke="#333333" x1="25.919" y1="327.908" x2="805.438" y2="327.908"/>
<line fill="none" stroke="#020202" x1="100.501" y1="330.147" x2="100.501" y2="334.664"/>
<line fill="none" stroke="#020202" x1="228.094" y1="330.147" x2="228.094" y2="334.664"/>
<line fill="none" stroke="#020202" x1="351.568" y1="330.147" x2="351.568" y2="334.664"/>
<line fill="none" stroke="#020202" x1="479.154" y1="330.147" x2="479.154" y2="334.664"/>
<line fill="none" stroke="#020202" x1="606.744" y1="330.147" x2="606.744" y2="334.664"/>
<line fill="none" stroke="#020202" x1="721.987" y1="330.147" x2="721.987" y2="334.664"/>
<text transform="matrix(1 0 0 1 194.4443 347.4805)" fill="#333333" font-family="'ArialMT'" font-size="11.3367">2014-12-10</text>
<text transform="matrix(1 0 0 1 321.0371 347.4805)" fill="#333333" font-family="'ArialMT'" font-size="11.3367">2014-12-31</text>
<text transform="matrix(1 0 0 1 449.5205 347.4805)" fill="#333333" font-family="'ArialMT'" font-size="11.3367">2015-1-20</text>
<text transform="matrix(1 0 0 1 579.8916 347.4805)" fill="#333333" font-family="'ArialMT'" font-size="11.3367">2015-02-09</text>
<text transform="matrix(1 0 0 1 691.8428 347.4805)" fill="#333333" font-family="'ArialMT'" font-size="11.3367">2015-03-01</text>
<text transform="matrix(1 0 0 1 65.0166 347.4805)" fill="#333333" font-family="'ArialMT'" font-size="11.3367">2014-11-20</text>
<g>
	<g transform="translate(0,140)">
		<line fill="none" stroke="#020202" x1="24.003" y1="165.816" x2="20.657" y2="165.816"/>
		<text transform="matrix(1 0 0 1 10.5557 166.0928)" fill="#020202" font-family="'ArialMT'" font-size="11.5112">2</text>
	</g>
	<g transform="translate(0,100)">
		<line fill="none" stroke="#020202" x1="23.838" y1="182.445" x2="20.494" y2="182.445"/>
		<text transform="matrix(1 0 0 1 11.9614 184.5869)" fill="#020202" font-family="'ArialMT'" font-size="11.5112">4</text>
	</g>
	<g transform="translate(0,20.000000000000007)">
		<line fill="none" stroke="#020202" x1="24.003" y1="218.917" x2="20.657" y2="218.917"/>
		<text transform="matrix(1 0 0 1 4.7998 223.1484)" fill="#020202" font-family="'ArialMT'" font-size="11.5112">&gt;8</text>
	</g>
	<path fill="none" stroke="#020202" d="M20.657,227.766h3.346v100.352h-3.346"/>
	<g transform="translate(0,20.000000000000007)">
		<line fill="none" stroke="#020202" x1="24.866" y1="241.519" x2="21.521" y2="241.519"/>
		<text transform="matrix(1 0 0 1 7.7559 245.751)" fill="#020202" font-family="'ArialMT'" font-size="11.5112"> 6</text>
	</g>
	<text transform="matrix(1 0 0 1 11.6021 328.2178)" fill="#020202" font-family="'ArialMT'" font-size="11.5112">0</text>
</g>
<polyline fill="none" stroke="#CECCCC" stroke-width="2.4" points="707.345,92.609 707.347,104.337 701.482,98.471 "/>
<polyline fill="none" stroke="#CECCCC" stroke-width="2.4" points="761.52,120.122 773.248,120.12 767.382,125.985 "/>
<polyline fill="none" stroke="#CECCCC" stroke-width="2.4" points="786.847,117.537 775.118,117.54 780.984,111.676 "/>
<polyline fill="none" stroke="#CECCCC" stroke-width="2.4" points="550.753,51.868 539.625,40.743 550.753,40.743 "/>
</svg>
